<?xml version="1.0" encoding="utf-8"?>
<!-- Generator: Adobe Illustrator 27.5.0, SVG Export Plug-In . SVG Version: 6.00 Build 0)  -->
<svg version="1.1" xmlns="http://www.w3.org/2000/svg" xmlns:xlink="http://www.w3.org/1999/xlink" x="0px" y="0px"
	 viewBox="0 0 750 500" style="enable-background:new 0 0 750 500;" xml:space="preserve">
<g id="BACKGROUND">
	<rect id="XMLID_1_" style="fill:#FFFFFF;" width="750" height="500"/>
</g>
<g id="OBJECTS">
	<g id="XMLID_113_">
		<g id="XMLID_112_">
			<g id="XMLID_248_">
				<g id="XMLID_300_">
					<path id="XMLID_429_" style="fill:#E4F9F6;" d="M715.11,341.72c-4.76,13.74-11.57,25.93-19.33,35.76
						c-5.87,7.42-12.28,13.51-18.79,17.89c-1.09,0.74-2.18,1.43-3.28,2.07l-172.87-0.7l-422.22-1.71c0,0-1.09-0.64-2.94-2.01
						c-10.35-7.64-44.67-38.01-47.71-106.47c-0.28-6.17-0.3-12.65-0.03-19.45c0.69-17.15,2.75-33.13,6.01-47.85
						c14.96-67.49,68.08-143.27,118.56-148.6c102.5-10.82,96.4,40.42,155.84,39.12c76.09-1.66,138.04-44.11,270.93-28.3
						c90.67,10.79,123.58,85.59,135.63,143.36c6.05,28.99,6.9,55.58,7.33,71.14C722.69,312.26,719.95,327.79,715.11,341.72z"/>
					<g id="XMLID_241_">
						<path id="XMLID_249_" style="fill:#FFFFFF;" d="M726.535,177.842c0,0.435-0.334,0.848-0.961,1.236H593.396
							c2.392-0.507,6.624-0.843,11.44-0.843c0.773,0,1.536,0.01,2.267,0.026c-0.021-0.119-0.042-0.243-0.042-0.362
							c0-2.167,4.545-3.926,10.165-3.941c-0.01-0.036-0.021-0.078-0.021-0.114c0-4.417,8.724-7.991,19.484-7.991
							c8.953,0,16.465,2.472,18.753,5.845c1.546-0.119,3.155-0.191,4.827-0.191c2.643,0,5.151,0.165,7.418,0.455
							c2.173-3.507,10.238-6.108,19.871-6.108c11.304,0,20.466,3.574,20.466,7.991c0,0.005,0,0.005,0,0.01
							C718.324,173.958,726.535,175.701,726.535,177.842z"/>
						<path id="XMLID_254_" style="fill:#FFFFFF;" d="M416.06,176.968c0,0.741-0.355,1.448-1.022,2.11H274.525
							c2.543-0.865,7.041-1.439,12.161-1.439c0.822,0,1.632,0.018,2.41,0.044c-0.022-0.203-0.045-0.415-0.045-0.618
							c0-3.698,4.831-6.7,10.806-6.726c-0.011-0.062-0.022-0.132-0.022-0.194c0-7.538,9.273-13.637,20.713-13.637
							c9.518,0,17.503,4.219,19.935,9.974c1.644-0.203,3.354-0.327,5.131-0.327c2.81,0,5.475,0.283,7.885,0.777
							c2.31-5.985,10.884-10.424,21.124-10.424c12.017,0,21.757,6.099,21.757,13.637c0,0.009,0,0.009,0,0.018
							C407.33,170.339,416.06,173.314,416.06,176.968z"/>
						<path id="XMLID_291_" style="fill:#FFFFFF;" d="M208.962,133.303H58.74c-0.215-0.368-0.328-0.736-0.328-1.117
							c0-3.389,8.701-6.182,19.933-6.601c-0.373-1.181-0.588-2.399-0.588-3.669c0-9.382,10.871-16.986,24.272-16.986
							c5.48,0,10.52,1.282,14.577,3.44c4.237-5.687,11.763-9.483,20.374-9.483c13.255,0,24.001,8.963,24.001,20.007
							c0,0.14-0.023,0.267-0.023,0.406c2.463,0.495,4.667,1.422,6.407,2.653c1.503-5.649,6.441-9.8,12.328-9.8
							c7.074,0,12.803,5.992,12.803,13.381c0,1.257-0.169,2.463-0.486,3.605c1.265-0.152,2.61-0.241,4.011-0.241
							C202.69,128.898,208.194,130.827,208.962,133.303z"/>
						<path id="XMLID_290_" style="fill:#FFFFFF;" d="M609.221,103.406c0,1.031-0.393,2.013-1.129,2.933H452.829
							c2.81-1.203,7.78-2,13.438-2c0.908,0,1.804,0.025,2.663,0.061c-0.025-0.282-0.049-0.577-0.049-0.859
							c0-5.142,5.338-9.314,11.941-9.351c-0.012-0.086-0.025-0.184-0.025-0.27c0-10.48,10.247-18.96,22.887-18.96
							c10.517,0,19.34,5.866,22.028,13.867c1.816-0.282,3.706-0.454,5.67-0.454c3.105,0,6.05,0.393,8.713,1.08
							c2.553-8.32,12.026-14.493,23.341-14.493c13.278,0,24.04,8.48,24.04,18.96c0,0.012,0,0.012,0,0.024
							C599.575,94.189,609.221,98.325,609.221,103.406z"/>
					</g>
				</g>
				<g id="XMLID_299_">
					<path id="XMLID_439_" style="fill:#ADE0E0;" d="M673.71,397.443l-595.09-2.41c0,0-54.53-32.16-50.68-127.93
						c0.69-17.15,2.75-33.13,6.01-47.85c18.9-15.59,46.09-39.74,46.09-39.74l85.575,90.785l60.82-0.395l120.505-104.05l53.37,51.13
						l61.79-45.55l75.86,55.6l113.71-61.18l63.24,58.98c6.05,28.99,6.9,55.58,7.33,71.14
						C723.53,342.523,698.7,382.833,673.71,397.443z"/>
					<g id="XMLID_244_">
						<path id="XMLID_560_" style="fill:#D6F2EF;" d="M136.64,286.553v106.47H75.68c-10.35-7.64-44.67-38.01-47.71-106.47H136.64z"
							/>
						<rect id="XMLID_256_" x="230.908" y="286.558" style="fill:#D6F2EF;" width="108.895" height="107.5"/>
						<rect id="XMLID_259_" x="346.732" y="286.192" style="fill:#D6F2EF;" width="108.895" height="107.752"/>
						<path id="XMLID_558_" style="fill:#D6F2EF;" d="M695.78,287.393v90.09c-6.85,8.67-14.45,15.51-22.07,19.96l-172.87-0.7
							v-109.35H695.78z"/>
					</g>
				</g>
				<path id="XMLID_426_" style="fill:#71BCA7;" d="M715.11,341.72c-4.76,13.74-11.57,25.93-19.33,35.76
					c-5.87,7.42-12.28,13.51-18.79,17.89h-4.78v0.55h-71.47v-0.73h-51.65v0.56h-71.47v-17.94h6.71v-2.55
					c-1.48-1.57-2.32-3.73-2.12-6.04l0.08-0.9l2.69-31.02c0.36-4.09,3.87-7.25,8.07-7.25h13.01c4.2,0,7.71,3.16,8.07,7.25
					l1.02,11.77h9.27c1.77-2.62,4.49-5.55,7.89-5.69c1.58-0.06,3.04,0.45,4.33,1.25l1.1-14.24c0.36-4.55,3.83-8.04,7.99-8.04h12.89
					c4.16,0,7.63,3.49,7.99,8.04l1.01,13.05h9.17c1.76-2.91,4.46-6.16,7.82-6.31c3.8-0.18,6.87,3.41,8.69,6.31h1.28v2.32
					c0.32,0.66,0.5,1.13,0.52,1.24c0.02,0.13-0.13,0.64-0.37,1.35c2.05,4.85,3.38,10.46,3.6,14.75c0.03,0.45,0.05,0.87,0.05,1.27
					c0,4.5-1.45,7.38-3.8,9.16v1.77h6.65v2.68h6.22v-2.55c-1.48-1.57-2.32-3.72-2.12-6.04l0.08-0.9l2.69-31.02
					c0.36-4.09,3.87-7.24,8.07-7.24h13.01c4.21,0,7.72,3.15,8.07,7.24l1.02,11.78h9.27c1.78-2.63,4.5-5.56,7.9-5.7
					c1.58-0.06,3.03,0.45,4.32,1.26l1.11-14.25c0.35-4.54,3.82-8.04,7.99-8.04h12.88c4.16,0,7.64,3.5,7.99,8.04l1.01,13.05h9.17
					c1.76-2.91,4.46-6.16,7.83-6.31C710.73,337.16,713.27,339.36,715.11,341.72z"/>
			</g>
			<g id="XMLID_111_">
				<g id="XMLID_109_">
					<g id="XMLID_297_">
						<g id="XMLID_296_">
							<g id="XMLID_295_">
								<g id="XMLID_343_">
									<path id="XMLID_346_" style="fill:#393F4C;" d="M548.261,225.038l-7.546,12.15h15.463L548.261,225.038z M548.358,228.211
										l3.782,7.959h-7.387L548.358,228.211z"/>
									<g id="XMLID_339_">
										<g id="XMLID_329_">
											<path id="XMLID_342_" style="fill:#393F4C;" d="M558.888,286.86h-19.82c-5.07,0-9.05-4.249-8.62-9.183l0.08-0.959
												l2.88-33.139c0.38-4.376,4.13-7.744,8.62-7.744h13.9c4.49,0,8.24,3.368,8.62,7.744l2.88,33.139l0.08,0.959
												C567.938,282.611,563.958,286.86,558.888,286.86z"/>
											<path id="XMLID_340_" style="fill:#454C56;" d="M567.428,276.717c-0.66,3.994-4.2,7.107-8.54,7.107h-19.82
												c-4.34,0-7.88-3.113-8.54-7.107l2.88-33.139c0.38-4.376,4.13-7.744,8.62-7.744h13.9c4.49,0,8.24,3.368,8.62,7.744
												L567.428,276.717z"/>
										</g>
										<path id="XMLID_341_" style="fill:none;stroke:#262B38;stroke-miterlimit:10;" d="M534.757,253.005l0.791-10.443
											c0.785-2.791,3.559-4.744,6.738-4.744h13.26c3.297,0,6.141,2.098,6.809,5.022l0.742,10.165"/>
									</g>
									<g id="XMLID_338_">
										<g id="XMLID_334_">
											<path id="XMLID_331_" style="fill:#393F4C;" d="M559.652,279.646h-21.348c-2.543,0-4.506-2.236-4.176-4.758l1.307-9.995
												c0.274-2.097,2.061-3.665,4.176-3.665h18.735c2.115,0,3.902,1.569,4.176,3.665l1.307,9.995
												C564.157,277.41,562.194,279.646,559.652,279.646z"/>
											<path id="XMLID_332_" style="fill:#586066;" d="M559.652,278.139h-21.348c-2.543,0-4.506-2.236-4.176-4.758l1.307-9.995
												c0.274-2.097,2.061-3.666,4.176-3.666h18.735c2.115,0,3.902,1.569,4.176,3.666l1.307,9.995
												C564.157,275.902,562.194,278.139,559.652,278.139z"/>
										</g>
										<rect id="XMLID_336_" x="537.959" y="262.116" style="fill:#262B38;" width="22.037" height="0.97"/>
										<ellipse id="XMLID_337_" style="fill:#393F4C;" cx="548.978" cy="269.685" rx="4.521" ry="2.429"/>
									</g>
								</g>
								<g id="XMLID_327_">
									<polyline id="XMLID_326_" style="fill:none;stroke:#595647;stroke-miterlimit:10;" points="603.064,254.227 
										616.665,211.218 630.175,254.227 									"/>
									<g id="XMLID_325_">
										<g id="XMLID_321_">
											<path id="XMLID_330_" style="fill:#E2D28F;" d="M633.01,261.47c0,8.97-7.27,16.24-16.24,16.24
												c-8.96,0-16.23-7.27-16.23-16.24c0-0.45,0.02-0.89,0.06-1.33c0.67-8.34,7.66-14.9,16.17-14.9
												c8.52,0,15.51,6.56,16.18,14.9C632.99,260.58,633.01,261.02,633.01,261.47z"/>
											<path id="XMLID_328_" style="fill:#EFEBAB;" d="M632.95,260.14c-0.67,8.35-7.66,14.9-16.18,14.9
												c-8.51,0-15.5-6.55-16.17-14.9c0.67-8.34,7.66-14.9,16.17-14.9C625.29,245.24,632.28,251.8,632.95,260.14z"/>
										</g>
										<g id="XMLID_324_">
											<g id="XMLID_323_">
												<path id="XMLID_319_" style="fill:#E2D28F;" d="M627.024,264.473c0,5.663-4.59,10.252-10.252,10.252
													c-5.657,0-10.246-4.59-10.246-10.252c0-0.284,0.013-0.562,0.038-0.84c0.423-5.265,4.836-9.406,10.208-9.406
													c5.379,0,9.791,4.141,10.214,9.406C627.011,263.911,627.024,264.189,627.024,264.473z"/>
												<path id="XMLID_335_" style="fill:#F2F2C2;" d="M626.99,263.63c-0.04,0.49-0.11,0.97-0.22,1.44v0.01
													c-1.05,4.57-5.12,7.96-10,7.96c-5.37,0-9.78-4.13-10.21-9.41c0.22-2.66,1.45-5.03,3.31-6.72
													c1.82-1.66,4.24-2.68,6.9-2.68C622.15,254.23,626.56,258.37,626.99,263.63z"/>
												<path id="XMLID_333_" style="fill:#EFEBAB;" d="M626.77,265.07v0.01c-1.05,4.57-5.12,7.96-10,7.96
													c-5.37,0-9.78-4.13-10.21-9.41c0.22-2.66,1.45-5.03,3.31-6.72c1.72-1.14,3.79-1.8,6.01-1.8
													C621.59,255.11,626.28,259.49,626.77,265.07z"/>
											</g>
											<rect id="XMLID_318_" x="609.617" y="261.392" style="fill:#595647;" width="14.097" height="0.943"/>
										</g>
									</g>
								</g>
								<g id="XMLID_361_">
									<polyline id="XMLID_372_" style="fill:none;stroke:#262B38;stroke-miterlimit:10;" points="497.963,251.324 
										511.564,208.315 525.074,251.324 									"/>
									<g id="XMLID_362_">
										<g id="XMLID_369_">
											<path id="XMLID_371_" style="fill:#393F4C;" d="M527.909,258.567c0,8.97-7.27,16.24-16.24,16.24
												c-8.96,0-16.23-7.27-16.23-16.24c0-0.45,0.02-0.89,0.06-1.33c0.67-8.34,7.66-14.9,16.17-14.9
												c8.52,0,15.51,6.56,16.18,14.9C527.889,257.677,527.909,258.117,527.909,258.567z"/>
											<path id="XMLID_370_" style="fill:#454C56;" d="M527.849,257.237c-0.67,8.35-7.66,14.9-16.18,14.9
												c-8.51,0-15.5-6.55-16.17-14.9c0.67-8.34,7.66-14.9,16.17-14.9C520.189,242.337,527.179,248.897,527.849,257.237z"/>
										</g>
										<g id="XMLID_363_">
											<g id="XMLID_365_">
												<path id="XMLID_368_" style="fill:#393F4C;" d="M521.923,261.57c0,5.663-4.59,10.252-10.252,10.252
													c-5.656,0-10.246-4.59-10.246-10.252c0-0.284,0.013-0.562,0.038-0.84c0.423-5.265,4.836-9.406,10.208-9.406
													c5.379,0,9.791,4.141,10.214,9.406C521.911,261.008,521.923,261.286,521.923,261.57z"/>
												<path id="XMLID_367_" style="fill:#6B7477;" d="M521.889,260.727c-0.04,0.49-0.11,0.97-0.22,1.44v0.01
													c-1.05,4.57-5.12,7.96-10,7.96c-5.37,0-9.78-4.13-10.21-9.41c0.22-2.66,1.45-5.03,3.31-6.72
													c1.82-1.66,4.24-2.68,6.9-2.68C517.049,251.327,521.459,255.467,521.889,260.727z"/>
												<path id="XMLID_366_" style="fill:#586066;" d="M521.669,262.167v0.01c-1.05,4.57-5.12,7.96-10,7.96
													c-5.37,0-9.78-4.13-10.21-9.41c0.22-2.66,1.45-5.03,3.31-6.72c1.72-1.14,3.79-1.8,6.01-1.8
													C516.489,252.207,521.179,256.587,521.669,262.167z"/>
											</g>
											<rect id="XMLID_364_" x="504.516" y="258.489" style="fill:#262B38;" width="14.097" height="0.943"/>
										</g>
									</g>
								</g>
								<g id="XMLID_317_">
									<path id="XMLID_316_" style="fill:none;stroke:#5B2A32;stroke-miterlimit:10;" d="M637.32,263.346
										c0-0.017,14.351-40.586,14.351-40.586l14.362,40.586"/>
									<g id="XMLID_315_">
										<path id="XMLID_322_" style="fill:#964538;" d="M663.188,281.653h-23.022c-3.532,0-6.225-3.101-5.759-6.574
											c0.012-0.047,0.012-0.105,0.023-0.152l1.632-10.13c0.455-2.809,2.879-4.873,5.724-4.873h19.77
											c2.856,0,5.28,2.063,5.735,4.873l1.632,10.13c0,0.035,0.012,0.07,0.012,0.105
											C669.424,278.517,666.732,281.653,663.188,281.653z"/>
										<path id="XMLID_320_" style="fill:#A05440;" d="M668.935,275.032c-0.361,2.809-2.751,5.047-5.747,5.047h-23.022
											c-2.984,0-5.385-2.215-5.759-5.001c0.012-0.047,0.012-0.105,0.023-0.152l1.632-10.13c0.455-2.809,2.879-4.873,5.724-4.873
											h19.77c2.856,0,5.28,2.063,5.735,4.873l1.632,10.13C668.923,274.962,668.935,274.997,668.935,275.032z"/>
										<g id="XMLID_312_">
											<path id="XMLID_310_" style="fill:#964538;" d="M659.494,272.468l-3.142,0.787c-3.071,0.769-6.284,0.769-9.355,0
												l-3.142-0.787c-2.045-0.512-3.479-2.35-3.479-4.458v-7.145h22.598v7.145
												C662.973,270.119,661.539,271.957,659.494,272.468z"/>
											<path id="XMLID_309_" style="fill:#AF785A;" d="M659.494,271.523l-3.142,0.787c-3.071,0.769-6.284,0.769-9.355,0
												l-3.142-0.787c-2.045-0.512-3.479-2.35-3.479-4.458v-7.145h22.598v7.145
												C662.973,269.174,661.539,271.011,659.494,271.523z"/>
										</g>
										<rect id="XMLID_314_" x="649.45" y="269.593" style="fill:#964538;" width="4.449" height="1.196"/>
									</g>
								</g>
								<g id="XMLID_308_">
									<g id="XMLID_282_">
										<path id="XMLID_283_" style="fill:none;stroke:#9B6734;stroke-miterlimit:10;" d="M683.722,242.866
											c-0.603-0.611-0.196-27.303-2.234-27.1c-2.037,0.204-10.956,50.862-10.956,50.862"/>
										<path id="XMLID_284_" style="fill:none;stroke:#9B6734;stroke-miterlimit:10;" d="M682.931,242.866
											c0.603-0.611,0.196-27.303,2.233-27.1c2.038,0.204,10.956,50.862,10.956,50.862"/>
									</g>
									<g id="XMLID_307_">
										<g id="XMLID_306_">
											<g id="XMLID_305_">
												<path id="XMLID_313_" style="fill:#B2803D;" d="M698.326,266.628c0,8.888-6.538,11.252-14.609,11.252
													c-8.059,0-14.596-2.364-14.596-11.252c0-0.39,0.013-0.792,0.05-1.22c0.528-9.115,6.839-24.402,14.546-24.402
													c7.719,0,14.031,15.288,14.559,24.402C698.314,265.836,698.326,266.238,698.326,266.628z"/>
											</g>
											<path id="XMLID_311_" style="fill:#BA8E42;" d="M698.276,265.409c-0.528,7.958-6.839,10.121-14.559,10.121
												c-7.707,0-14.018-2.162-14.546-10.121c0.528-9.115,6.839-24.402,14.546-24.402
												C691.437,241.006,697.748,256.294,698.276,265.409z"/>
										</g>
										<path id="XMLID_302_" style="fill:#CCA652;" d="M672.595,250.883c0,0,3.422,7.731,5.884,8.187s11.5,0.603,12.411-0.583
											c0.912-1.185,3.993-8.052,3.902-8.599c-0.091-0.547-4.676-9.783-11.315-9.51
											C676.838,240.651,672.595,250.883,672.595,250.883z"/>
										<g id="XMLID_304_">
											<rect id="XMLID_287_" x="682.231" y="257.091" style="fill:#9B6734;" width="2.981" height="8.006"/>
											<rect id="XMLID_303_" x="681.548" y="264.532" style="fill:#773624;" width="4.294" height="1.13"/>
										</g>
									</g>
								</g>
							</g>
							<g id="XMLID_294_">
								<g id="XMLID_394_">
									<polygon id="XMLID_277_" style="fill:#A34F21;" points="693.985,393.465 631.961,393.465 631.961,343.597 658.576,343.597 
										693.985,343.597 									"/>
									<g id="XMLID_347_">
										<g id="XMLID_373_">
											<g id="XMLID_374_">
												<path id="XMLID_380_" style="fill:#CE8495;" d="M656.8,374.3h-23.022c-3.532,0-6.225-3.101-5.758-6.574
													c0.012-0.047,0.012-0.105,0.023-0.152l1.632-10.13c0.455-2.809,2.879-4.873,5.724-4.873h19.77
													c2.856,0,5.281,2.063,5.735,4.873l1.632,10.13c0,0.035,0.011,0.07,0.011,0.105
													C663.036,371.164,660.343,374.3,656.8,374.3z"/>
												<path id="XMLID_379_" style="fill:#DD9FB1;" d="M662.546,367.679c-0.361,2.809-2.751,5.047-5.747,5.047h-23.022
													c-2.984,0-5.385-2.215-5.758-5.001c0.012-0.047,0.012-0.105,0.023-0.152l1.632-10.13
													c0.455-2.809,2.879-4.873,5.724-4.873h19.77c2.856,0,5.281,2.063,5.735,4.873l1.632,10.13
													C662.535,367.609,662.546,367.644,662.546,367.679z"/>
												<g id="XMLID_376_">
													<path id="XMLID_378_" style="fill:#CE8495;" d="M653.106,365.115l-3.142,0.787c-3.071,0.769-6.284,0.769-9.355,0
														l-3.142-0.787c-2.045-0.512-3.479-2.349-3.479-4.457v-7.145h22.598v7.145
														C656.585,362.766,655.151,364.603,653.106,365.115z"/>
													<path id="XMLID_377_" style="fill:#E8B8CC;" d="M653.106,364.17l-3.142,0.787c-3.071,0.769-6.284,0.769-9.355,0
														l-3.142-0.787c-2.045-0.512-3.479-2.35-3.479-4.458v-7.145h22.598v7.145
														C656.585,361.82,655.151,363.658,653.106,364.17z"/>
												</g>
												<rect id="XMLID_375_" x="643.062" y="362.24" style="fill:#B5626E;" width="4.449" height="1.196"/>
											</g>
										</g>
										<g id="XMLID_381_">
											<g id="XMLID_388_">
												<g id="XMLID_390_">
													<path id="XMLID_392_" style="fill:#396051;" d="M691.575,374.508h-19.82c-5.07,0-9.05-4.249-8.62-9.183l0.08-0.959
														l2.88-33.138c0.38-4.376,4.13-7.744,8.62-7.744h13.9c4.49,0,8.24,3.368,8.62,7.744l2.88,33.138l0.08,0.959
														C700.625,370.259,696.645,374.508,691.575,374.508z"/>
													<path id="XMLID_391_" style="fill:#507261;" d="M700.115,364.365c-0.66,3.994-4.2,7.107-8.54,7.107h-19.82
														c-4.34,0-7.88-3.113-8.54-7.107l2.88-33.138c0.38-4.376,4.13-7.744,8.62-7.744h13.9c4.49,0,8.24,3.368,8.62,7.744
														L700.115,364.365z"/>
												</g>
												<path id="XMLID_389_" style="fill:none;stroke:#142F33;stroke-miterlimit:10;" d="M667.444,340.652l0.791-10.443
													c0.784-2.791,3.559-4.745,6.738-4.745h13.26c3.297,0,6.141,2.098,6.809,5.022l0.742,10.165"/>
											</g>
											<g id="XMLID_382_">
												<g id="XMLID_385_">
													<path id="XMLID_387_" style="fill:#396051;" d="M692.339,367.294h-21.348c-2.543,0-4.506-2.236-4.176-4.758
														l1.307-9.995c0.274-2.097,2.061-3.666,4.176-3.666h18.735c2.115,0,3.902,1.569,4.176,3.666l1.307,9.995
														C696.845,365.058,694.882,367.294,692.339,367.294z"/>
													<path id="XMLID_386_" style="fill:#62826F;" d="M692.339,365.787h-21.348c-2.543,0-4.506-2.236-4.176-4.758
														l1.307-9.995c0.274-2.097,2.061-3.666,4.176-3.666h18.735c2.115,0,3.902,1.569,4.176,3.666l1.307,9.995
														C696.845,363.55,694.882,365.787,692.339,365.787z"/>
												</g>
												<rect id="XMLID_384_" x="670.647" y="349.764" style="fill:#142F33;" width="22.037" height="0.97"/>
												<ellipse id="XMLID_383_" style="fill:#142F33;" cx="681.665" cy="357.333" rx="4.521" ry="2.429"/>
											</g>
										</g>
									</g>
									<rect id="XMLID_276_" x="624.793" y="374.3" style="fill:#B26D34;" width="76.359" height="19.165"/>
									<rect id="XMLID_393_" x="624.793" y="374.3" style="fill:#BA854A;" width="76.359" height="2.713"/>
								</g>
								<g id="XMLID_554_">
									<polygon id="XMLID_555_" style="fill:#A34F21;" points="565.154,393.133 503.131,393.133 503.131,343.265 529.746,343.265 
										565.154,343.265 									"/>
									<g id="XMLID_523_">
										<g id="XMLID_528_">
											<g id="XMLID_534_">
												<g id="XMLID_536_">
													<path id="XMLID_537_" style="fill:#E2D28F;" d="M567.07,363.432c0,8.888-6.538,11.252-14.609,11.252
														c-8.059,0-14.596-2.364-14.596-11.252c0-0.39,0.012-0.792,0.05-1.22c0.528-9.115,6.839-24.402,14.546-24.402
														c7.719,0,14.031,15.288,14.559,24.402C567.057,362.64,567.07,363.042,567.07,363.432z"/>
												</g>
												<path id="XMLID_535_" style="fill:#EFEBAB;" d="M567.02,362.212c-0.528,7.958-6.839,10.121-14.559,10.121
													c-7.707,0-14.018-2.162-14.546-10.121c0.528-9.115,6.839-24.402,14.546-24.402
													C560.18,337.81,566.492,353.098,567.02,362.212z"/>
											</g>
											<path id="XMLID_533_" style="fill:#E2D28F;" d="M541.339,347.686c0,0,3.422,7.731,5.884,8.187
												c2.462,0.456,11.5,0.603,12.411-0.583c0.912-1.185,3.993-8.052,3.902-8.599c-0.091-0.547-4.676-9.783-11.315-9.51
												C545.582,337.454,541.339,347.686,541.339,347.686z"/>
											<g id="XMLID_530_">
												<rect id="XMLID_532_" x="550.975" y="353.895" style="fill:#595647;" width="2.981" height="8.006"/>
												<rect id="XMLID_531_" x="550.292" y="361.336" style="fill:#443B2D;" width="4.294" height="1.13"/>
											</g>
										</g>
									</g>
									<rect id="XMLID_527_" x="495.963" y="373.968" style="fill:#B26D34;" width="76.359" height="19.165"/>
									<rect id="XMLID_526_" x="495.963" y="373.968" style="fill:#BA854A;" width="76.359" height="2.713"/>
									<g id="XMLID_520_">
										<g id="XMLID_549_">
											<g id="XMLID_551_">
												<path id="XMLID_553_" style="fill:#396051;" d="M529.307,373.968h-19.82c-5.07,0-9.05-4.249-8.62-9.183l0.08-0.959
													l2.88-33.139c0.38-4.376,4.13-7.744,8.62-7.744h13.9c4.49,0,8.24,3.368,8.62,7.744l2.88,33.139l0.08,0.959
													C538.357,369.719,534.377,373.968,529.307,373.968z"/>
												<path id="XMLID_552_" style="fill:#507261;" d="M537.847,363.825c-0.66,3.994-4.2,7.107-8.54,7.107h-19.82
													c-4.34,0-7.88-3.113-8.54-7.107l2.88-33.139c0.38-4.376,4.13-7.744,8.62-7.744h13.9c4.49,0,8.24,3.368,8.62,7.744
													L537.847,363.825z"/>
											</g>
											<path id="XMLID_550_" style="fill:none;stroke:#142F33;stroke-miterlimit:10;" d="M505.176,340.112l0.791-10.443
												c0.785-2.791,3.559-4.745,6.738-4.745h13.26c3.297,0,6.141,2.098,6.809,5.022l0.741,10.165"/>
										</g>
										<g id="XMLID_538_">
											<g id="XMLID_541_">
												<path id="XMLID_548_" style="fill:#396051;" d="M530.071,366.754h-21.348c-2.543,0-4.506-2.236-4.176-4.758l1.307-9.995
													c0.274-2.097,2.061-3.666,4.176-3.666h18.735c2.115,0,3.902,1.568,4.176,3.666l1.307,9.995
													C534.577,364.518,532.614,366.754,530.071,366.754z"/>
												<path id="XMLID_547_" style="fill:#62826F;" d="M530.071,365.247h-21.348c-2.543,0-4.506-2.236-4.176-4.758l1.307-9.995
													c0.274-2.097,2.061-3.666,4.176-3.666h18.735c2.115,0,3.902,1.568,4.176,3.666l1.307,9.995
													C534.577,363.01,532.614,365.247,530.071,365.247z"/>
											</g>
											<rect id="XMLID_540_" x="508.378" y="349.224" style="fill:#142F33;" width="22.037" height="0.97"/>
											<path id="XMLID_539_" style="fill:#142F33;" d="M523.918,356.793c0,1.341-2.024,2.429-4.521,2.429
												s-4.521-1.087-4.521-2.429c0-1.341,2.024-2.429,4.521-2.429S523.918,355.452,523.918,356.793z"/>
										</g>
									</g>
								</g>
							</g>
						</g>
						<g id="XMLID_275_">
							<g id="XMLID_271_">
								<g id="XMLID_280_">
									<rect id="XMLID_289_" x="704.322" y="219.801" style="fill:#7F9BA3;" width="4.52" height="175.434"/>
									<rect id="XMLID_288_" x="704.322" y="220.935" style="fill:#5B7D8E;" width="4.52" height="29.373"/>
								</g>
								<g id="XMLID_272_">
									<rect id="XMLID_274_" x="488.902" y="219.801" style="fill:#7F9BA3;" width="4.52" height="175.434"/>
									<rect id="XMLID_273_" x="488.902" y="220.935" style="fill:#5B7D8E;" width="4.52" height="29.373"/>
								</g>
							</g>
							<g id="XMLID_270_">
								<g id="XMLID_252_">
									<g id="XMLID_266_">
										<path id="XMLID_268_" style="fill:#B0B03E;" d="M711.834,189.32H487.243c8.199-3.813,16.307-7.805,24.357-11.956
											c25.947-13.386,51.162-28.451,75.862-44.724c2.87-1.893,5.741-3.799,8.599-5.726c1.944-1.119,5.009-1.119,6.964,0
											c19.383,13.144,38.606,25.55,57.508,36.477c9.148,5.291,18.228,10.243,27.205,14.761
											C695.859,182.247,703.886,185.983,711.834,189.32z"/>
										<path id="XMLID_267_" style="fill:#9DA537;" d="M711.834,189.32H487.243c8.199-3.813,16.307-7.805,24.357-11.956
											c17.671,2.998,143.662,4.752,176.139,0.787C695.859,182.247,703.886,185.983,711.834,189.32z"/>
									</g>
									<g id="XMLID_255_">
										<rect id="XMLID_264_" x="487.246" y="186.385" style="fill:#B0B03E;" width="224.591" height="15.736"/>
									</g>
								</g>
								<g id="XMLID_269_">
									<polygon id="XMLID_250_" style="fill:#BCB94D;" points="599.542,202.12 596.36,230.585 482.397,230.585 487.246,202.12 
																			"/>
									<polygon id="XMLID_263_" style="fill:#BCB94D;" points="711.837,202.12 715.348,230.585 602.925,230.585 599.542,202.12 
																			"/>
								</g>
							</g>
						</g>
					</g>
					<g id="XMLID_292_">
						<g id="XMLID_10_">
							<rect id="XMLID_247_" x="58.723" y="359.286" style="fill:#749AC1;" width="181.66" height="33.74"/>
							<g id="XMLID_9_">
								<g id="XMLID_45_">
									<g id="XMLID_42_">
										<rect id="XMLID_44_" x="240.383" y="237.428" style="fill:#C1C8C9;" width="4.679" height="155.598"/>
										<rect id="XMLID_43_" x="240.383" y="238.434" style="fill:#808589;" width="4.679" height="26.052"/>
									</g>
									<g id="XMLID_49_">
										<rect id="XMLID_240_" x="56.383" y="237.428" style="fill:#C1C8C9;" width="4.679" height="155.598"/>
										<rect id="XMLID_239_" x="56.383" y="238.434" style="fill:#808589;" width="4.679" height="26.052"/>
									</g>
								</g>
								<g id="XMLID_246_">
									<g id="XMLID_243_">
										<path id="XMLID_265_" style="fill:#F53542;" d="M248.92,231.678H52.52c7.17-5.52,14.26-11.3,21.3-17.31
											c22.69-19.38,44.74-41.19,66.34-64.75c2.51-2.74,5.02-5.5,7.52-8.29c1.7-1.62,4.38-1.62,6.09,0
											c16.95,19.03,33.76,36.99,50.29,52.81c8,7.66,15.94,14.83,23.79,21.37C234.95,221.438,241.97,226.848,248.92,231.678z"/>
										<path id="XMLID_253_" style="fill:#E52831;" d="M248.92,231.678H52.52c7.17-5.52,14.26-11.3,21.3-17.31
											c16.258,12.383,126.597,16.506,154.03,1.14C234.95,221.438,241.97,226.848,248.92,231.678z"/>
									</g>
									<g id="XMLID_245_">
										<g id="XMLID_134_">
											<rect id="XMLID_135_" x="52.523" y="229.075" style="fill:#F94158;" width="196.4" height="27.913"/>
										</g>
									</g>
									<g id="XMLID_242_">
										<g id="XMLID_132_">
											<rect id="XMLID_133_" x="52.523" y="229.075" style="fill:#F7597B;" width="196.4" height="5.624"/>
										</g>
									</g>
								</g>
							</g>
						</g>
						<g id="XMLID_557_">
							<g id="XMLID_438_">
								<g id="XMLID_436_">
									<g id="XMLID_434_">
										<path id="XMLID_401_" style="fill:#23847B;" d="M77.992,337.833c0-0.714-3.689-16.246-13.139-24.759
											c0,0,14.672,1.703,17.905,17.454c0,0,2.175-15.97,13.987-23.398c0,0-8.075,17.433-6.899,30.703H77.992z"/>
										
											<path id="XMLID_420_" style="fill:none;stroke:#1B6670;stroke-width:0.5;stroke-linecap:round;stroke-linejoin:round;stroke-miterlimit:10;" d="
											M92.039,314.406c0,0-6.641,7.429-6.535,23.333"/>
										
											<path id="XMLID_421_" style="fill:none;stroke:#1B6670;stroke-width:0.5;stroke-linecap:round;stroke-linejoin:round;stroke-miterlimit:10;" d="
											M71.129,317.446c0,0,8.597,7.181,10.954,19.565"/>
									</g>
									<g id="XMLID_423_">
										<path id="XMLID_399_" style="fill:#25A58C;" d="M77.945,344.395c-2.385,2.694-1.446-13.329-21.125-21.378
											c0,0,15.578-0.541,22.174,8.266c0.722-5.413-0.698-19.078-9.59-27.655c0,0,16.896,2.984,18.296,27.041
											c0,0,2.26-10.662,19.646-14.601c0,0-15.852,15.728-17.352,29.43"/>
										<g id="XMLID_400_">
											
												<path id="XMLID_403_" style="fill:none;stroke:#1B6670;stroke-width:0.5;stroke-linecap:round;stroke-linejoin:round;stroke-miterlimit:10;" d="
												M76.103,309.184c0,0,9.655,8.86,7.59,29.236"/>
											
												<path id="XMLID_412_" style="fill:none;stroke:#1B6670;stroke-width:0.5;stroke-linecap:round;stroke-linejoin:round;stroke-miterlimit:10;" d="
												M100.008,321.067c0,0-10.556,4.604-13.88,22.907"/>
											
												<path id="XMLID_413_" style="fill:none;stroke:#1B6670;stroke-width:0.5;stroke-linecap:round;stroke-linejoin:round;stroke-miterlimit:10;" d="
												M64.853,325.588c0,0,10.445,2.547,15.437,13.907"/>
										</g>
									</g>
								</g>
								<g id="XMLID_257_">
									<polygon id="XMLID_410_" style="fill:#E06868;" points="97.826,339.676 97.126,343.586 94.299,359.521 72.951,359.521 
										70.124,343.586 69.424,339.676 									"/>
									<polygon id="XMLID_408_" style="fill:#C64A5C;" points="97.826,339.676 97.126,343.586 70.124,343.586 69.424,339.676 
																			"/>
									<rect id="XMLID_258_" x="67.309" y="336.878" style="fill:#E06868;" width="32.631" height="4.702"/>
								</g>
							</g>
							<g id="XMLID_519_">
								<g id="XMLID_486_">
									<g id="XMLID_484_">
										<path id="XMLID_480_" style="fill:#12877F;" d="M189.525,323.836c-1.791-2.551-2.687-5.664-2.855-8.777
											c-0.168-3.112,0.364-6.231,1.235-9.224c1.217-4.181,3.124-8.2,5.903-11.553c2.779-3.353,6.464-6.016,10.643-7.244
											c-3.114,4.757-3.961,9.737-5.362,15.247s-1.64,10.618-3.544,15.975c-0.836,2.352-3.234,3.935-5.269,5.38"/>
										
											<path id="XMLID_481_" style="fill:none;stroke:#1B6670;stroke-width:0.5;stroke-linecap:round;stroke-linejoin:round;stroke-miterlimit:10;" d="
											M198.33,293.968c0,0-10.244,21.374-9.562,43.301"/>
									</g>
									<g id="XMLID_485_">
										<path id="XMLID_483_" style="fill:#12877F;" d="M185.712,324.383c2.282-7.077,1.479-14.938-1.387-21.799
											c-2.866-6.861-7.682-12.78-13.246-17.713c4.181,10.992,3.91,23.401,8.871,34.063c0.858,1.843,1.948,3.703,3.711,4.716"/>
										
											<path id="XMLID_482_" style="fill:none;stroke:#1B6670;stroke-width:0.5;stroke-linecap:round;stroke-linejoin:round;stroke-miterlimit:10;" d="
											M174.698,290.994c0,0,10.973,21.632,12.027,46.359"/>
									</g>
									<g id="XMLID_478_">
										<path id="XMLID_476_" style="fill:#25A58C;" d="M185.481,331.092c1.706-5.642,1.186-11.926-1.423-17.211
											c-2.61-5.285-7.282-9.518-12.799-11.595c2.202,2.92,3.152,6.582,3.826,10.177c0.675,3.595,1.137,7.274,2.551,10.647
											c1.414,3.373,3.975,6.486,7.479,7.534"/>
										
											<path id="XMLID_279_" style="fill:none;stroke:#1B6670;stroke-width:0.5;stroke-linecap:round;stroke-linejoin:round;stroke-miterlimit:10;" d="
											M178.628,312.093c5.464,10.904,8.584,22.976,9.086,35.163"/>
									</g>
									<g id="XMLID_477_">
										<path id="XMLID_474_" style="fill:#25A58C;" d="M190.214,329.982c-2.792-7.088-1.152-15.487,3.321-21.653
											c4.473-6.166,11.472-10.211,18.857-12.08c-5.077,4.448-7.463,11.123-9.968,17.391
											c-2.505,6.268-5.668,12.809-11.519,16.174"/>
										
											<path id="XMLID_251_" style="fill:none;stroke:#1B6670;stroke-width:0.5;stroke-linecap:round;stroke-linejoin:round;stroke-miterlimit:10;" d="
											M201.4,304.493c-8.534,12.479-13.014,27.686-12.607,42.799"/>
									</g>
									<g id="XMLID_479_">
										<path id="XMLID_475_" style="fill:#42BA92;" d="M187.64,328.993c-3.103-4.207-4.412-9.507-4.73-14.725
											c-0.318-5.218,0.283-10.441,0.638-15.657c0.354-5.216,0.453-10.527-0.839-15.592c3.189,3.638,6.451,7.399,8.041,11.968
											c1.136,3.266,1.353,6.769,1.559,10.221c0.36,6.02,0.715,12.124-0.517,18.028c-0.51,2.442-1.63,5.178-4.035,5.845"/>
										
											<path id="XMLID_278_" style="fill:none;stroke:#1B6670;stroke-width:0.5;stroke-linecap:round;stroke-linejoin:round;stroke-miterlimit:10;" d="
											M186.525,296.874c0.699,16.59,1.173,33.19,1.422,49.794"/>
									</g>
								</g>
								<g id="XMLID_409_">
									<polygon id="XMLID_428_" style="fill:#D6B18A;" points="198.907,334.135 198.366,339.142 198.149,341.089 197.531,346.822 
										196.156,359.524 179.514,359.524 178.138,346.822 177.52,341.089 177.304,339.142 176.763,334.135 									"/>
									<polygon id="XMLID_424_" style="fill:#E5D3B7;" points="198.149,341.089 197.531,346.822 178.138,346.822 177.52,341.089 
																			"/>
									<polygon id="XMLID_411_" style="fill:#E5D3B7;" points="176.763,334.137 177.308,333.365 179.512,330.216 196.159,330.216 
										198.363,333.365 198.909,334.137 									"/>
								</g>
							</g>
							<g id="XMLID_518_">
								<g id="XMLID_440_">
									<path id="XMLID_441_" style="fill:#6CBC88;" d="M116.511,352.79c0,0-0.045-12.787-3.401-19.157
										c-3.356-6.37-16.779-10.17-16.779-10.17C103.577,335.522,112.229,342.248,116.511,352.79z"/>
									<path id="XMLID_442_" style="fill:#6CBC88;" d="M115.822,351.066c0,0-4.717-18.168-3.511-24.422
										c1.207-6.253,8.19-16.747,8.19-16.747C122.145,321.612,118.449,335.524,115.822,351.066z"/>
									<path id="XMLID_443_" style="fill:#6CBC88;" d="M115.796,353.737c-0.155,0.724-0.999-13.833,3.746-20.975
										c4.745-7.143,18.577-10.43,18.577-10.43C135.648,330.482,119.332,337.208,115.796,353.737z"/>
									<path id="XMLID_445_" style="fill:#58997A;" d="M133.073,326.39c-6.474,5.15-13.321,10.276-17.062,17.827
										c-0.309-4.299-0.519-8.574-0.21-12.893c0.374-5.224,1.775-10.234,3.102-15.273c0.008-0.029-0.033-0.039-0.044-0.012
										c-3.317,8.235-4.512,18.203-3.51,27.166c-1.035-2.508-2.715-4.777-4.502-6.775c-2.945-3.293-5.933-6.601-9.351-9.414
										c-0.045-0.037-0.106,0.021-0.065,0.065c5.444,5.765,10.647,11.083,14.014,18.347c-0.015,0.035-0.033,0.068-0.048,0.103
										c-0.088,0.203,0.13,0.343,0.28,0.22c0.013,0.006,0.02,0.026,0.034,0.03c0.112,0.148,0.417,0.089,0.4-0.132
										c-0.011-0.142-0.019-0.284-0.03-0.426c2.481-3.414,4.415-7.014,7.517-10.003c3.095-2.982,6.369-5.888,9.66-8.644
										C133.389,326.466,133.202,326.287,133.073,326.39z"/>
								</g>
								<g id="XMLID_261_">
									<polygon id="XMLID_397_" style="fill:#E2CB91;" points="125.028,343.187 124.566,346.406 122.7,359.521 108.608,359.521 
										106.742,346.406 106.281,343.187 									"/>
									<polygon id="XMLID_396_" style="fill:#D8B177;" points="125.028,343.187 124.566,346.406 106.742,346.406 106.281,343.187 
																			"/>
									<rect id="XMLID_395_" x="104.884" y="340.885" style="fill:#E2CB91;" width="21.539" height="3.87"/>
								</g>
							</g>
							<g id="XMLID_516_">
								<g id="XMLID_515_">
									<g id="XMLID_512_">
										<path id="XMLID_488_" style="fill:#12877F;" d="M212.245,344.277c-1.984-7.988-5.554-15.579-10.441-22.201
											c6.507,2.273,12.058,7.163,15.133,13.331c2.922-7.179,9.542-12.734,17.119-14.365c-3.48,8.963-6.96,17.925-10.44,26.888"
											/>
										<g id="XMLID_511_">
											
												<path id="XMLID_503_" style="fill:none;stroke:#1B6670;stroke-width:0.5;stroke-linecap:round;stroke-linejoin:round;stroke-miterlimit:10;" d="
												M231.365,323.525c-4.88,4.576-8.359,10.627-9.86,17.146"/>
											
												<path id="XMLID_505_" style="fill:none;stroke:#1B6670;stroke-width:0.5;stroke-linecap:round;stroke-linejoin:round;stroke-miterlimit:10;" d="
												M227.612,324.774c0.037,0.837,0.122,1.672,0.254,2.499"/>
											
												<path id="XMLID_506_" style="fill:none;stroke:#1B6670;stroke-width:0.5;stroke-linecap:round;stroke-linejoin:round;stroke-miterlimit:10;" d="
												M223.091,329.077c0.26,1.464,0.564,2.921,0.909,4.368"/>
											
												<path id="XMLID_507_" style="fill:none;stroke:#1B6670;stroke-width:0.5;stroke-linecap:round;stroke-linejoin:round;stroke-miterlimit:10;" d="
												M229.713,330.098c-1.42,0.268-2.84,0.536-4.26,0.805"/>
										</g>
										<g id="XMLID_510_">
											
												<path id="XMLID_504_" style="fill:none;stroke:#1B6670;stroke-width:0.5;stroke-linecap:round;stroke-linejoin:round;stroke-miterlimit:10;" d="
												M205.752,325.529c4.254,3.937,7.48,8.976,9.274,14.487"/>
											
												<path id="XMLID_508_" style="fill:none;stroke:#1B6670;stroke-width:0.5;stroke-linecap:round;stroke-linejoin:round;stroke-miterlimit:10;" d="
												M209.401,327.043c0,0.698,0,1.396,0,2.095"/>
											
												<path id="XMLID_509_" style="fill:none;stroke:#1B6670;stroke-width:0.5;stroke-linecap:round;stroke-linejoin:round;stroke-miterlimit:10;" d="
												M209.343,333.152c0.853,0.039,1.707,0.077,2.56,0.116"/>
										</g>
									</g>
									<g id="XMLID_514_">
										<path id="XMLID_487_" style="fill:#42BA92;" d="M210.766,348.603c-2.343-6.807-6.469-12.992-11.855-17.77
											c6.014-0.21,12.011,3.224,14.874,8.516c-1.774-9.072,1.736-18.986,8.825-24.919c-0.35,8.706-0.104,17.436,0.735,26.109
											c0.845-3.899,3.876-7.04,7.369-8.968c3.493-1.928,7.447-2.822,11.34-3.693c-6.569,5.65-11.982,12.639-15.809,20.412
											L210.766,348.603z"/>
										<g id="XMLID_513_">
											<g id="XMLID_501_">
												
													<path id="XMLID_489_" style="fill:none;stroke:#1B6670;stroke-width:0.5;stroke-linecap:round;stroke-linejoin:round;stroke-miterlimit:10;" d="
													M220.247,320.68c-2.524,8.703-2.841,18.037-0.914,26.891"/>
												
													<path id="XMLID_492_" style="fill:none;stroke:#1B6670;stroke-width:0.5;stroke-linecap:round;stroke-linejoin:round;stroke-miterlimit:10;" d="
													M215.752,325.642c1.024,1.101,1.924,2.318,2.676,3.62"/>
												
													<path id="XMLID_493_" style="fill:none;stroke:#1B6670;stroke-width:0.5;stroke-linecap:round;stroke-linejoin:round;stroke-miterlimit:10;" d="
													M221.878,334.771c-1.401,0.738-2.701,1.669-3.851,2.758"/>
												
													<path id="XMLID_494_" style="fill:none;stroke:#1B6670;stroke-width:0.5;stroke-linecap:round;stroke-linejoin:round;stroke-miterlimit:10;" d="
													M215.581,340.266c0.942,0.375,1.849,0.836,2.707,1.376"/>
											</g>
											<g id="XMLID_502_">
												
													<path id="XMLID_490_" style="fill:none;stroke:#1B6670;stroke-width:0.5;stroke-linecap:round;stroke-linejoin:round;stroke-miterlimit:10;" d="
													M205.349,335.026c4.5,3.083,8.02,7.575,9.935,12.683"/>
												
													<path id="XMLID_495_" style="fill:none;stroke:#1B6670;stroke-width:0.5;stroke-linecap:round;stroke-linejoin:round;stroke-miterlimit:10;" d="
													M208.962,335.465c0.021,0.823,0.041,1.646,0.062,2.469"/>
												
													<path id="XMLID_496_" style="fill:none;stroke:#1B6670;stroke-width:0.5;stroke-linecap:round;stroke-linejoin:round;stroke-miterlimit:10;" d="
													M209.404,342.406c0.946,0.006,1.893,0.012,2.839,0.017"/>
											</g>
											<g id="XMLID_500_">
												
													<path id="XMLID_491_" style="fill:none;stroke:#1B6670;stroke-width:0.5;stroke-linecap:round;stroke-linejoin:round;stroke-miterlimit:10;" d="
													M233.222,333.006c-4.818,3.968-8.572,9.216-10.771,15.058"/>
												
													<path id="XMLID_497_" style="fill:none;stroke:#1B6670;stroke-width:0.5;stroke-linecap:round;stroke-linejoin:round;stroke-miterlimit:10;" d="
													M230.464,333.241c0.082,0.658,0.164,1.317,0.245,1.975"/>
												
													<path id="XMLID_498_" style="fill:none;stroke:#1B6670;stroke-width:0.5;stroke-linecap:round;stroke-linejoin:round;stroke-miterlimit:10;" d="
													M231.312,338.191c-1.09,0.03-2.18,0.06-3.27,0.09"/>
												
													<path id="XMLID_499_" style="fill:none;stroke:#1B6670;stroke-width:0.5;stroke-linecap:round;stroke-linejoin:round;stroke-miterlimit:10;" d="
													M224.235,339.488c0.28,0.984,0.561,1.967,0.841,2.951"/>
											</g>
										</g>
									</g>
								</g>
								<g id="XMLID_415_">
									<polygon id="XMLID_419_" style="fill:#E06868;" points="230.974,345.207 230.349,348.023 227.824,359.496 208.753,359.496 
										206.227,348.023 205.602,345.207 									"/>
									<polygon id="XMLID_417_" style="fill:#C64A5C;" points="230.974,345.207 230.349,348.023 206.227,348.023 205.602,345.207 
																			"/>
									<rect id="XMLID_416_" x="203.712" y="343.193" style="fill:#E06868;" width="29.151" height="3.385"/>
								</g>
							</g>
							<g id="XMLID_517_">
								<g id="XMLID_473_">
									<g id="XMLID_447_">
										<path id="XMLID_463_" style="fill:#EDA977;" d="M159.092,330.749c0.397-1.965,1.023-3.933,0.776-5.989
											c-0.296-2.466-1.685-4.118-1.728-6.776c-0.034-2.125,0.73-4.211,0.487-6.353c-0.172-1.519-0.64-2.107-1.241-3.376
											c-1.081-2.282-2.046-4.251-1.02-6.844c0.388-0.98,0.897-1.898,1.223-2.913c1.69-5.271-3.629-10.289,1.742-14.451
											c0.432-0.334,0.171-1.18-0.362-1.005c-4.093,1.342-7.517,4.601-9.094,9.298c-0.556,1.656-0.689,3.406-1.117,5.097
											c-0.507,2-1.583,3.6-2.179,5.521c-0.599,1.931-0.379,3.843-0.058,5.811c0.348,2.136,0.877,4.206,0.464,6.404
											c-0.278,1.483-1.081,2.763-1.181,4.307c-0.135,2.095,0.834,3.63,1.582,5.432c2.328,5.605-0.846,12.737,2.64,17.67
											c-0.563,0.334-0.276,1.446,0.396,1.227c2.753-0.896,5.462-1.368,8.329-1.335c0.363,0.004,0.668-0.435,0.555-0.852
											C158.297,337.906,158.331,334.517,159.092,330.749z"/>
										<path id="XMLID_461_" style="fill:#DB855A;" d="M155.679,287.684c-3.336,3.037-2.87,6.293-2.719,10.304
											c0.156,4.144-2.253,5.54-2.445,9.136c-0.104,1.952,0.859,3.21,1.424,4.942c1.774,5.434-0.467,4.386-1.206,8.015
											c-0.382,1.878,0.395,3.423,1.119,5.094c0.874,2.02,1.808,3.52,1.367,5.938c-0.218,1.194-0.891,2.267-1.114,3.462
											c-0.382,2.05,0.358,3.741,1.277,5.55c0.169,0.332,0.665,0.04,0.498-0.291c-1.978-3.927-0.051-5.986,0.143-9.736
											c0.059-1.141-0.263-2.199-0.672-3.254c-0.992-2.554-2.373-4.354-1.571-7.132c0.441-1.529,1.67-2.815,1.851-4.426
											c0.157-1.394-0.507-2.401-0.998-3.627c-0.879-2.193-1.621-4.331-0.759-6.674c0.404-1.1,1.216-1.998,1.596-3.093
											c0.417-1.201,0.371-2.145,0.191-3.381c-0.64-4.378-0.771-6.862,2.245-10.601
											C156.034,287.753,155.835,287.542,155.679,287.684z"/>
									</g>
									<g id="XMLID_444_">
										<path id="XMLID_469_" style="fill:#EDA977;" d="M170.026,299.642c-2.47,1.426-4.394,3.107-5.423,6.191
											c-0.81,2.428-1.173,4.898-2.396,7.136c-0.676,1.237-1.428,2.411-1.667,3.883c-0.281,1.727,0.198,3.294,0.659,4.903
											c1.036,3.616,1.198,5.929,0.108,9.64c-1.146,3.898-0.42,7.096,0.86,10.852c-0.604,0.127-0.352,1.23,0.258,1.088
											c1.135-0.265,2.27-0.529,3.405-0.794c0.236-0.055,0.368-0.383,0.31-0.638c-0.68-2.957-0.746-5.064,0.6-7.819
											c0.534-1.094,1.281-1.927,1.63-3.162c0.724-2.557-0.134-4.925-0.614-7.409c-0.78-4.039,0.922-6.794,0.923-10.665
											c0.002-4.112-2.124-9.555,1.846-12.203C171.087,300.27,170.594,299.314,170.026,299.642z"/>
										<path id="XMLID_465_" style="fill:#DB855A;" d="M165.477,315.862c-0.299-4.276-0.616-7.334,1.244-11.457
											c0.033-0.074-0.068-0.137-0.111-0.065c-1.42,2.389-2.244,4.59-2.166,7.406c0.038,1.38,0.325,2.74,0.398,4.116
											c0.128,2.393-0.538,4.204-1.05,6.438c-0.573,2.499,0.133,4.269,0.404,6.709c0.454,4.083-2.164,6.861-1.991,10.736
											c0.021,0.465,0.763,0.455,0.718,0c-0.298-3.057,1.641-5.212,1.954-8.116c0.344-3.187-1.353-5.887-0.459-9.156
											C165.067,320.104,165.654,318.381,165.477,315.862z"/>
									</g>
									<g id="XMLID_470_">
										<path id="XMLID_466_" style="fill:#EDA977;" d="M146.331,331.925c-1.104-3.457-0.389-6.42-0.854-9.912
											c-0.409-3.071-0.874-5.742-0.734-8.893c0.137-3.072-1.312-4.572-1.579-7.633c-0.168-1.924,0.576-3.762-0.079-5.657
											c-1.245-3.602-4.661-4.201-7.555-3.656c-0.433,0.082-0.416,0.906,0,1.004c4.643,1.094,0.709,7.714,0.348,10.25
											c-0.285,2.002,0.124,3.338,0.993,5.013c1.019,1.965,1.968,2.768,1.897,5.585c-0.066,2.596-1.192,3.562-1.846,5.652
											c-0.403,1.288-0.567,2.481-0.126,3.788c0.707,2.098,2.514,3.162,3.059,5.479c0.636,2.706-0.967,5.671-0.364,8.272
											c0.689,2.975,4.32,2.039,6.439,2.216c0.428,0.036,0.578-0.45,0.458-0.819
											C148.048,338.785,147.586,335.857,146.331,331.925z"/>
										<path id="XMLID_468_" style="fill:#DB855A;" d="M143.182,330.49c-0.673-2.599-2.151-4.733-1.569-7.521
											c0.287-1.375,0.847-2.677,0.996-4.083c0.389-3.667-2.731-6.217-2.658-9.826c0.07-3.48,1.09-5.894-0.343-9.286
											c-0.085-0.201-0.416-0.057-0.352,0.148c0.891,2.844,0.499,4.937,0.094,7.783c-0.13,0.919-0.331,1.682-0.226,2.611
											c0.379,3.354,3.021,5.411,2.598,9.09c-0.249,2.165-1.347,4.157-0.99,6.376c0.255,1.586,1.224,2.756,1.713,4.281
											c0.868,2.708,0.561,5.455-0.712,7.974c-0.236,0.468,0.469,0.777,0.668,0.282
											C143.435,335.757,143.883,333.197,143.182,330.49z"/>
									</g>
									<g id="XMLID_471_">
										<path id="XMLID_462_" style="fill:#F4CA8C;" d="M166.341,293.578c-2.829,1.035-5.584,2.333-6.611,5.87
											c-0.58,1.998-0.464,4.188-0.634,6.254c-0.209,2.53-0.969,3.895-2.204,5.88c-0.493,0.792-0.862,0.899-1.255,1.897
											c-0.487,1.239-0.415,2.702-0.254,4.005c0.204,1.65,0.768,3.201,0.981,4.856c0.312,2.425,0.012,4.678-0.355,7.087
											c-0.701,4.596-1.598,8.879,0.521,13.126c-0.314,0.307-0.202,1.094,0.343,1.144c2.539,0.233,4.912,0.038,7.401-0.534
											c0.395-0.091,0.462-0.686,0.224-0.992c-1.57-2.017-2.088-2.892-2.275-5.722c-0.19-2.867,0.057-2.897,1.391-4.845
											c0.584-0.853,1.216-1.67,1.493-2.745c0.792-3.073-1.192-5.44-1.739-8.257c-0.888-4.569,2.503-7.227,2.289-11.555
											c-0.087-1.767-0.838-3.317-1.291-4.963c-1.025-3.72-0.543-7.112,2.317-9.56
											C167.06,294.202,166.857,293.389,166.341,293.578z"/>
										<path id="XMLID_448_" style="fill:#DB855A;" d="M162.489,299.149c0.069-0.273-0.335-0.382-0.421-0.116
											c-1.434,4.444-0.196,8.416-0.86,12.862c-0.538,3.604-2.354,6.057-1.243,9.736c0.903,2.99,1.394,4.967,0.11,8.057
											c-0.549,1.323-1.267,2.512-1.575,3.933c-0.646,2.982,0.145,5.858,1.784,8.362c0.32,0.488,1.106,0.035,0.786-0.46
											c-2.843-4.4-1.568-7.615,0.089-12.011c0.988-2.619,0.846-4.336-0.012-6.964c-0.779-2.389-0.916-4.271-0.237-6.802
											c0.333-1.24,0.903-2.355,1.094-3.642C162.664,307.685,161.339,303.664,162.489,299.149z"/>
									</g>
									<g id="XMLID_472_">
										<path id="XMLID_456_" style="fill:#F4CA8C;" d="M151.458,340.025c1.192-5.281-2.057-10.139-0.465-15.751
											c0.683-2.408,1.817-4.928,1.442-7.553c-0.377-2.636-2.484-4.123-3.104-6.612c-0.952-3.825,2.052-7.011,2.453-10.616
											c0.242-2.179-0.333-4.049-1.437-5.788c-2.711-4.266-7.32-6.247-11.728-6.171c-0.383,0.007-0.562,0.648-0.202,0.871
											c3.419,2.118,5.531,6.794,4.497,11.307c-0.7,3.056-2.963,5.984-2.437,9.367c0.194,1.248,0.547,1.543,1.038,2.55
											c1.295,2.659,2.658,3.925,1.722,7.084c-0.699,2.36-2.129,4.646-1.987,7.259c0.234,4.324,3.739,6.249,2.674,11.305
											c-0.404,1.918-1.166,3.41,0.076,5.189c1.144,1.638,3.025,1.825,4.685,1.534c2.447-0.428,2.444-0.695,3.094-3.281
											C151.866,340.367,151.687,340.117,151.458,340.025z"/>
										<path id="XMLID_449_" style="fill:#DB855A;" d="M148.547,331.661c-0.014-1.623-0.712-3.044-1.334-4.502
											c-1.127-2.642-1.509-4.202-0.257-6.852c0.345-0.731,0.89-1.263,1.181-2.033c0.549-1.453,0.521-2.612-0.029-4.09
											c-0.714-1.92-2.285-3.4-2.959-5.333c-1.089-3.129,1.375-5.553,1.906-8.487c0.592-3.275-0.538-6.503-2.915-8.781
											c-0.133-0.128-0.314,0.062-0.2,0.2c2.352,2.841,3.453,6.446,2.241,10.056c-0.563,1.676-1.92,3.002-2.07,4.817
											c-0.407,4.921,5.235,6.827,2.791,12.306c-1.375,3.083-2.245,4.156-0.914,7.596c0.653,1.69,1.667,3.213,1.687,5.104
											c0.019,1.809-1.011,3.338-1.268,5.074c-0.211,1.42-0.044,2.197,0.486,3.42c0.223,0.514,0.974,0.07,0.753-0.44
											C146.381,336.795,148.571,334.516,148.547,331.661z"/>
									</g>
								</g>
								<g id="XMLID_260_">
									<path id="XMLID_418_" style="fill:#E6D6ED;" d="M169.866,338.685V348c0,6.301-5.099,11.4-11.4,11.4H148.04
										c-6.301,0-11.4-5.099-11.4-11.4v-9.315H169.866z"/>
									<rect id="XMLID_414_" x="136.64" y="339.02" style="fill:#A58BB7;" width="33.226" height="4.17"/>
									<rect id="XMLID_398_" x="135.674" y="336.988" style="fill:#E6D6ED;" width="35.15" height="4.171"/>
								</g>
							</g>
						</g>
					</g>
					<g id="XMLID_108_">
						<g id="XMLID_579_">
							<g id="XMLID_575_">
								<path id="XMLID_591_" style="fill:#F4A989;" d="M388.267,291.21l-4.88,13.48l-10.48,28.99l-6.15-2.09
									c0,0,4.54-18.31,7.54-30.85c1.21-5.08,2.16-9.21,2.46-10.8c1.04-5.54,5.08-8.56,5.08-8.56L388.267,291.21z"/>
								<path id="XMLID_588_" style="fill:#E54E5C;" d="M388.267,291.21l-4.88,13.48l-9.744-4.293
									c1.21-5.08,2.814-8.867,3.114-10.457c1.04-5.54,5.08-8.56,5.08-8.56L388.267,291.21z"/>
							</g>
							<g id="XMLID_578_">
								<path id="XMLID_585_" style="fill:#F4A989;" d="M410.647,283.02c-0.09,1.68-3.55,24.49-3.55,24.49h-23.49
									c0,0-3.92-24.74-1.77-26.13c1.65-1.07,4.54-1.33,6.26-2.45c0.52-0.33,0.93-0.74,1.17-1.27c1.04-2.31,1.36-10.06,1.36-10.06
									l10.71-2.18c0,0-1.43,10.61,1.45,12.82c0.19,0.15,0.4,0.29,0.61,0.43C406.257,280.5,410.727,281.449,410.647,283.02z"/>
								<polygon id="XMLID_584_" style="fill:#507261;" points="413.289,380.094 376.756,380.094 383.477,309.6 383.607,307.509 
									407.097,307.509 407.227,309.6 								"/>
								<path id="XMLID_583_" style="fill:#F96775;" d="M410.647,283.02c-0.09,1.68-3.55,24.49-3.55,24.49
									c-8.123,0.857-15.977,0.926-23.49,0c0,0-3.92-24.74-1.77-26.13c1.65-1.07,4.54-1.33,6.26-2.45
									c0.97,2.67,2.89,7.06,5.08,7.54c2.06,0.45,6.99-4.36,10.22-7.8C406.257,280.5,410.727,281.449,410.647,283.02z"/>
								<path id="XMLID_581_" style="fill:#142F33;" d="M407.227,309.6c-7.926,1.11-15.842,1.112-23.75,0l0.13-2.09
									c7.83,0.892,15.66,0.892,23.49,0L407.227,309.6z"/>
							</g>
							<g id="XMLID_574_">
								<path id="XMLID_561_" style="fill:#E58876;" d="M389.813,265.258c-0.498,1.222-2.259,1.659-3.933,0.977
									c-1.674-0.682-2.628-2.226-2.13-3.447s2.259-1.659,3.933-0.977C389.357,262.492,390.31,264.036,389.813,265.258z"/>
								<path id="XMLID_564_" style="fill:#682C2C;" d="M386.183,255.873c0,0-0.005,0.066-0.012,0.191
									c-0.046,0.865-0.162,4.567,0.862,9.058l1.64-1.231l-0.571-9.387"/>
								<path id="XMLID_262_" style="fill:#F4A989;" d="M404.703,262.079c-1.075,6.235-6.757,9.584-12.011,9.47
									c-5.051-0.109-7.093-6.344-6.018-12.579c1.075-6.235,5.982-10.593,10.96-9.735
									C402.614,250.095,405.778,255.845,404.703,262.079z"/>
								<path id="XMLID_285_" style="fill:#F4A989;" d="M407.641,263.946c0.411,1.253-0.648,2.727-2.365,3.291
									c-1.718,0.564-3.444,0.005-3.855-1.248c-0.411-1.253,0.647-2.727,2.365-3.291
									C405.503,262.133,407.229,262.692,407.641,263.946z"/>
								<g id="XMLID_573_">
									<path id="XMLID_565_" style="fill:#494F5E;" d="M397.439,261.917c0,0.452-0.276,0.819-0.617,0.819
										s-0.617-0.367-0.617-0.819c0-0.452,0.276-0.819,0.617-0.819S397.439,261.464,397.439,261.917z"/>
									<path id="XMLID_568_" style="fill:#494F5E;" d="M389.541,261.917c0,0.452-0.276,0.819-0.617,0.819
										c-0.341,0-0.617-0.367-0.617-0.819c0-0.452,0.276-0.819,0.617-0.819C389.265,261.098,389.541,261.464,389.541,261.917z"/>
									
										<path id="XMLID_566_" style="fill:none;stroke:#682C2C;stroke-linecap:round;stroke-linejoin:round;stroke-miterlimit:10;" d="
										M395.379,258.644c1.244-0.523,2.95,0.146,3.601,0.956"/>
									
										<path id="XMLID_569_" style="fill:none;stroke:#682C2C;stroke-linecap:round;stroke-linejoin:round;stroke-miterlimit:10;" d="
										M387.263,258.369c0.567-0.656,2.517-0.973,3.358,0.089"/>
									
										<path id="XMLID_570_" style="fill:none;stroke:#C64E4E;stroke-linecap:round;stroke-linejoin:round;stroke-miterlimit:10;" d="
										M391.555,261.098c-0.158,1.035-0.29,1.896-0.096,2.924"/>
								</g>
								<g id="XMLID_571_">
									<path id="XMLID_563_" style="fill:#682C2C;" d="M400.574,255.704c0.076,0.413,0.4,10.143-1.164,11.752
										c-0.642,0.661-1.043,0.948-1.043,0.948s-0.47-3.116-1.544-3.704c-1.074-0.589-7.639-0.479-8.236,0.267
										c-0.596,0.746-0.771,3.093-0.771,3.093s-1.464-1.78-1.42-5.582c0,0-1.6,6.052,0.154,9.771
										c0.93,1.973-0.843,3.104,0.409,3.76c1.252,0.656,3.709-1.923,3.709-1.923s-1.347,2.472,0.204,2.77
										c1.551,0.298,4.514-2.912,4.514-2.912s-1.061,2.59,0.222,2.59s7.952-2.165,8.165-14.056L400.574,255.704z"/>
									<path id="XMLID_286_" style="fill:#682C2C;" d="M401.354,258.541l-0.672-2.608c0,0-4.356,1.586-4.806,0.891
										c-0.45-0.695,0.818-1.758,0.818-1.758s-6.581,2.984-7.399,1.921c-0.818-1.063,1.144-1.921,1.144-1.921
										s-5.884,2.501-6.293,0.637c-0.409-1.864,3.368-7.401,11.508-7.45c7.142-0.043,7.593,4.415,7.593,4.415
										s-0.238-4.082,0.952-3.541c1.19,0.541,0.286,3.398,0.286,3.398s1.689-1.285,2.487-0.238
										c0.798,1.047-2.439,1.523-2.439,1.523s2.936,1.963,0.571,8.665c-0.731,0.741-1.197,1.772-1.533,2.945L401.354,258.541z"/>
									<path id="XMLID_572_" style="fill:#FFFFFF;" d="M390.63,266.165l5.029-0.742c0,0,0.612,2.1-1.755,2.517
										C390.832,268.48,390.63,266.165,390.63,266.165z"/>
								</g>
							</g>
							<g id="XMLID_577_">
								<path id="XMLID_589_" style="fill:#F4A989;" d="M421.207,306.56c0.26,3.45-14.23,17.99-14.23,17.99l-4.08-5.16
									c0,0,7.75-10.6,7.75-12.52c0-0.62-0.39-1.87-0.96-3.37c-0.33-0.88-0.73-1.84-1.15-2.83c-2.23-5.2-2.28-11.09-0.09-16.32
									l1.11-2.67c0,0,3.05,1.74,4.08,3.65c0.62,1.15,3.13,7.34,5.09,12.84C420.037,301.829,421.097,305.19,421.207,306.56z"/>
								<path id="XMLID_587_" style="fill:#F96775;" d="M419.305,297.999l-10.425,6.116c-0.33-0.88-0.73-1.84-1.15-2.83
									c-2.23-5.2-1.472-11.706,0.718-16.936l1.11-2.67c0,0,3.05,1.74,4.08,3.65C414.257,286.48,417.345,292.499,419.305,297.999z"
									/>
								<path id="XMLID_576_" style="fill:#F4A989;" d="M407.016,319.509l-4.119-0.119c0,0-8.241,1.099-8.233,2.568
									c0.008,1.469-0.639,9.256,0.358,8.668c0.997-0.587,1.585-6.076,1.585-6.076s-0.979,7.175,0,7.294
									c0.979,0.119,2.226-6.227,2.226-6.227s-1.009,5.693-0.075,5.928c0.934,0.235,2.151-5.347,2.151-5.347
									s-1.175,5.563-0.19,5.435c0.986-0.128,2.178-5.618,2.178-5.618s3.171,0.663,4.832-2.231
									C409.391,320.891,407.016,319.509,407.016,319.509z"/>
							</g>
						</g>
						<g id="XMLID_8_">
							<g id="XMLID_17_">
								<rect id="XMLID_48_" x="266.126" y="211.341" style="fill:#B77321;" width="5.747" height="181.686"/>
								<path id="XMLID_46_" style="fill:#A34F21;" d="M271.873,211.341v40.071c-1.644-1.364-3.782-3.41-5.747-6.138v-33.934
									H271.873z"/>
								<rect id="XMLID_40_" x="470.712" y="211.341" style="fill:#B77321;" width="5.747" height="181.686"/>
								<path id="XMLID_38_" style="fill:#A34F21;" d="M476.459,211.341v29.362c-1.817,2.728-3.992,4.719-5.747,6.12v-35.482
									H476.459z"/>
							</g>
							<g id="XMLID_18_">
								<g id="XMLID_19_">
									<ellipse id="XMLID_21_" style="fill:#008071;" cx="358.556" cy="227.032" rx="12.943" ry="12.219"/>
									<ellipse id="XMLID_22_" style="fill:#25A58C;" cx="332.67" cy="227.032" rx="12.943" ry="12.219"/>
									<ellipse id="XMLID_25_" style="fill:#008071;" cx="306.785" cy="227.032" rx="12.943" ry="12.219"/>
									<ellipse id="XMLID_26_" style="fill:#25A58C;" cx="280.899" cy="227.032" rx="12.943" ry="12.219"/>
									<path id="XMLID_33_" style="fill:#008071;" d="M267.958,227.035c0,0.546-0.037,1.083-0.111,1.61
										c-0.84,5.99-6.266,10.609-12.828,10.609c-12.182,0-12.952-10.609-12.952-10.609s1.248-2.166,1.261-2.434l4.807-9.277
										c1.854-1.332,4.177-2.118,6.884-2.118C262.161,214.815,267.958,220.288,267.958,227.035z"/>
									<path id="XMLID_35_" style="fill:#25A58C;" d="M499.696,227.035v0.01c0,0.546,0.828,1.601,0.828,1.601
										s0,10.609-12.544,10.609c-6.562,0-11.988-4.619-12.828-10.609c-0.074-0.527-0.111-1.064-0.111-1.61
										c0-6.747,5.796-12.219,12.939-12.219c2.41,0,4.523,0.623,6.266,1.706L499.696,227.035z"/>
									<ellipse id="XMLID_28_" style="fill:#008071;" cx="462.099" cy="227.032" rx="12.943" ry="12.219"/>
									<ellipse id="XMLID_27_" style="fill:#25A58C;" cx="436.213" cy="227.032" rx="12.943" ry="12.219"/>
									<ellipse id="XMLID_29_" style="fill:#008071;" cx="410.327" cy="227.032" rx="12.943" ry="12.219"/>
									<ellipse id="XMLID_30_" style="fill:#25A58C;" cx="384.442" cy="227.032" rx="12.943" ry="12.219"/>
								</g>
								<g id="XMLID_31_">
									<polygon id="XMLID_36_" style="fill:#008071;" points="500.524,228.645 242.066,228.645 243.327,226.21 248.134,216.933 
										261.525,194.037 484.117,194.037 494.245,216.521 499.696,227.035 499.696,227.044 									"/>
									<polygon id="XMLID_41_" style="fill:#25A58C;" points="397.385,228.645 394.913,194.037 374.168,194.037 371.377,228.645 
																			"/>
									<polygon id="XMLID_56_" style="fill:#25A58C;" points="345.674,228.645 351.014,194.037 329.207,194.037 319.667,228.645 
																			"/>
									<polygon id="XMLID_57_" style="fill:#25A58C;" points="293.903,228.645 305.682,194.037 284.667,194.037 267.896,228.645 
																			"/>
									<polygon id="XMLID_281_" style="fill:#25A58C;" points="449.217,228.645 436.213,194.037 414.697,194.037 423.21,228.645 
																			"/>
									<polygon id="XMLID_293_" style="fill:#25A58C;" points="500.524,228.645 484.117,194.037 459.59,194.037 475.151,228.645 
																			"/>
								</g>
							</g>
						</g>
						<g id="XMLID_107_">
							<g id="XMLID_12_">
								<rect id="XMLID_13_" x="277.414" y="344.411" style="fill:#B77321;" width="187.761" height="6.534"/>
								<rect id="XMLID_237_" x="277.416" y="344.407" style="fill:#D1A142;" width="187.759" height="1.792"/>
								<rect id="XMLID_14_" x="279.352" y="350.945" style="fill:#B77321;" width="183.886" height="42.076"/>
								<rect id="XMLID_16_" x="279.352" y="350.945" style="fill:#A34F21;" width="183.886" height="6.62"/>
							</g>
							<g id="XMLID_104_">
								<g id="XMLID_63_">
									<path id="XMLID_34_" style="fill:#AFA241;" d="M301.81,344.76c-9.71-0.25-7.53-6.96-6.46-11.9
										c0.04-0.19,0.08-0.38,0.13-0.57c0.97,3.18,2.54,7.06,4.66,8.02c3.74,1.69,10.08,1.21,10.99,0.79
										c0.82-0.38,1.04-6.15,4.06-9.19c0.42,2.12,1.74,3.88,2.27,7.76C318.1,344.41,311.51,345.01,301.81,344.76z"/>
									<g id="XMLID_61_">
										<path id="XMLID_50_" style="fill:#BCB94D;" d="M301.81,344.76c-9.71-0.25-7.53-6.96-6.46-11.9
											c0.04-0.19,0.08-0.38,0.13-0.57c1.03-4.15,3.63-8.58,4.31-9.7c0.11-0.18,0.17-0.27,0.17-0.27l13.74-0.64
											c0,0,0.21,1.52,0.48,3.42c0.34,2.35,0.76,5.27,0.96,6.52c0.02,0.1,0.03,0.19,0.05,0.29c0.42,2.12,1.74,3.88,2.27,7.76
											C318.1,344.41,311.51,345.01,301.81,344.76z"/>
										<path id="XMLID_37_" style="fill:#AFA241;" d="M314.18,325.1c-8.35,2.18-12.98-1.2-14.39-2.51
											c0.11-0.18,0.17-0.27,0.17-0.27l13.74-0.64C313.7,321.68,313.91,323.2,314.18,325.1z"/>
										<path id="XMLID_60_" style="fill:#AFA241;" d="M301.81,344.76c-9.71-0.25-7.53-6.96-6.46-11.9
											c0.04-0.19,0.08-0.38,0.13-0.57c0.97,3.18,2.54,7.06,4.66,8.02c3.74,1.69,10.08,1.21,10.99,0.79
											c0.82-0.38,1.04-6.15,4.06-9.19c0.42,2.12,1.74,3.88,2.27,7.76C318.1,344.41,311.51,345.01,301.81,344.76z"/>
									</g>
									<g id="XMLID_53_">
										<g id="XMLID_47_">
											<path id="XMLID_15_" style="fill:#BCB94D;" d="M308.008,302.834c0,0-1.344-10.754,0-14.083
												c1.344-3.328,10.506-13.684,14.259-10.109c3.754,3.575-6.979,10.848-8.267,13.314
												c-1.288,2.466-2.095,12.205-2.095,12.205L308.008,302.834z"/>
											<path id="XMLID_20_" style="fill:#CECE6A;" d="M309.582,301.646c-0.073-0.293-0.366-8.913,0.587-10.614
												c0.953-1.701,5.864-7.125,6.89-6.319c1.026,0.806-4.398,6.304-4.838,7.697c-0.44,1.393-1.393,9.236-1.393,9.236H309.582z
												"/>
										</g>
										<g id="XMLID_51_">
											<path id="XMLID_7_" style="fill:#BCB94D;" d="M303.286,303.634c0,0-1.843-12.574-4.734-13.931s-18.777,0.74-16.49,6.41
												c2.288,5.671,11.946,0.37,13.344,1.479c1.398,1.109,3.813,8.506,3.813,8.506L303.286,303.634z"/>
											<path id="XMLID_23_" style="fill:#CECE6A;" d="M301.299,303.185c0,0-3.005-9.456-4.252-9.676
												c-1.246-0.22-10.262,1.319-9.603,2.932c0.66,1.613,8.137-0.733,8.723-0.22c0.586,0.513,3.623,7.55,3.623,7.55
												L301.299,303.185z"/>
										</g>
										<g id="XMLID_52_">
											<path id="XMLID_2_" style="fill:#BCB94D;" d="M321.761,313.953c0,6.17-7.288,9.205-14.907,9.205
												c-7.619,0-13.795-2.426-13.795-8.597c0-6.17,6.176-13.748,13.795-13.748
												C314.473,300.813,321.761,307.782,321.761,313.953z"/>
											<g id="XMLID_39_">
												<circle id="XMLID_3_" style="fill:#6D5423;" cx="302.454" cy="317.537" r="0.837"/>
												<circle id="XMLID_32_" style="fill:#6D5423;" cx="315.235" cy="317.121" r="0.837"/>
												<path id="XMLID_24_" style="fill:#E06868;" d="M311.642,319.167c0,0.351-0.759,0.636-1.694,0.636
													c-0.936,0-1.694-0.285-1.694-0.636c0-0.351,0.759-0.636,1.694-0.636C310.884,318.53,311.642,318.815,311.642,319.167z"
													/>
											</g>
										</g>
									</g>
									<g id="XMLID_62_">
										<g id="XMLID_55_">
											<path id="XMLID_4_" style="fill:#CECE6A;" d="M312.863,340.21c0.045-3.464,0.831-11.551,8.001-12.844
												c7.169-1.293-0.949,8.802-2.242,12.844c-1.293,4.042-2.086,5.111-3.643,5.094
												C313.072,345.282,312.845,341.588,312.863,340.21z"/>
											<path id="XMLID_54_" style="fill:#E06868;" d="M316.088,339.273c-0.23,1.055-0.103,1.979,0.283,2.063
												c0.386,0.084,0.886-0.703,1.115-1.758c0.23-1.055,0.103-1.979-0.283-2.063
												C316.817,337.431,316.318,338.218,316.088,339.273z"/>
										</g>
										<g id="XMLID_59_">
											<path id="XMLID_6_" style="fill:#CECE6A;" d="M298.438,344.859c0.154,0.303,0.322,0.61,0.581,0.816
												c0.664,0.526,1.683,0.14,2.157-0.582c0.475-0.722,0.543-1.655,0.56-2.536c0.063-3.307-0.376-6.599-0.813-9.874
												c-0.123-0.918-0.248-1.848-0.579-2.706c-0.405-1.052-1.538-2.724-2.606-2.724c-4.137,0-3.537,6.87-2.984,9.026
												C295.514,339.246,297.065,342.155,298.438,344.859z"/>
											<path id="XMLID_58_" style="fill:#E06868;" d="M299.099,341.527c0.28,1.043,0.816,1.806,1.198,1.703
												c0.382-0.102,0.465-1.031,0.185-2.074c-0.28-1.043-0.816-1.806-1.198-1.703
												C298.902,339.556,298.819,340.484,299.099,341.527z"/>
										</g>
									</g>
								</g>
								<g id="XMLID_76_">
									<g id="XMLID_74_">
										<path id="XMLID_73_" style="fill:#ED713B;" d="M352.361,345.318c-1.251-0.757-2.77-0.888-4.228-1
											c-1.026-0.079-2.053-0.158-3.08-0.236c-0.017-0.519,0.025-1.146,0.48-1.396c0.131-0.072,0.282-0.101,0.429-0.128
											c2.153-0.398,4.456-0.727,6.468,0.138"/>
										<path id="XMLID_72_" style="fill:#FF8745;" d="M351.817,345.729c0.052,0.179,0.11,0.365,0.238,0.501
											c0.328,0.35,0.915,0.204,1.328-0.04c1.278-0.755,2.051-2.13,2.63-3.497c0.518-1.223,0.928-2.488,1.337-3.752
											c0.11-0.34,0.203-0.761-0.05-1.014c-0.399-0.399-1.049,0.098-1.613,0.102c0.067-0.768,0.044-1.544-0.067-2.308
											c-0.06-0.412-0.27-1.048-0.814-0.919c-0.165,0.039-0.307,0.14-0.441,0.244c-0.199,0.154-2.145,2.452-2.068,2.469
											c-0.315-0.069-0.524-0.356-0.767-0.569c-1.474-1.295-0.955,2.527-0.807,3.191C351.139,342,351.28,343.884,351.817,345.729
											z"/>
									</g>
									<g id="XMLID_75_">
										<path id="XMLID_86_" style="fill:#FFC76C;" d="M350.43,338.71c-0.1,0.71-0.25,1.43-0.51,2.1
											c-0.19,0.48-0.44,0.94-0.77,1.34c-0.64,0.77-1.54,1.29-2.46,1.67c-2.23,0.93-4.69,1.2-7.1,1.29
											c-3.09,0.13-6.33-0.05-8.98-1.63c-0.41-0.24-0.82-0.54-0.98-0.98c-0.17-0.44,0.02-1.05,0.48-1.16
											c-0.65,0.04-1.22-0.66-1.07-1.28c0.16-0.63,0.99-0.97,1.54-0.64c-0.17-0.34-0.33-0.71-0.32-1.09
											c0.01-0.38,0.24-0.79,0.61-0.88c0.39-0.09,0.77,0.17,1.16,0.28c0.79,0.24,1.67-0.16,2.22-0.78
											c0.37-0.41,0.62-0.9,0.83-1.42c0.1-0.25,0.2-0.51,0.29-0.77c1-2.85,1.89-5.74,2.66-8.67c0.14-0.52,0.28-1.05,0.41-1.57
											l8.18-0.09c0.84,1.38,1.68,2.77,2.35,4.24c0.21,0.44,0.4,0.89,0.57,1.35C350.56,332.78,350.84,335.8,350.43,338.71z"/>
										<path id="XMLID_84_" style="fill:#F2A961;" d="M349.92,340.81c-0.19,0.48-0.44,0.94-0.77,1.34
											c-0.64,0.77-1.54,1.29-2.46,1.67c-2.23,0.93-4.69,1.2-7.1,1.29c-3.09,0.13-6.33-0.05-8.98-1.63
											c-0.41-0.24-0.82-0.54-0.98-0.98c-0.17-0.44,0.02-1.05,0.48-1.16c-0.65,0.04-1.22-0.66-1.07-1.28
											c0.16-0.63,0.99-0.97,1.54-0.64c-0.17-0.34-0.33-0.71-0.32-1.09c0.01-0.38,0.24-0.79,0.61-0.88
											c0.39-0.09,0.77,0.17,1.16,0.28c0.79,0.24,1.67-0.16,2.22-0.78c0.37-0.41,0.62-0.9,0.83-1.42
											C335.57,340.02,338.18,346.44,349.92,340.81z"/>
										<path id="XMLID_79_" style="fill:#F2A961;" d="M348.97,328.67c-3.3,0.03-8.56-1.72-10.94-2.58
											c0.14-0.52,0.28-1.05,0.41-1.57l8.18-0.09C347.46,325.81,348.3,327.2,348.97,328.67z"/>
									</g>
									<g id="XMLID_70_">
										<g id="XMLID_66_">
											<path id="XMLID_65_" style="fill:#FFC76C;" d="M357.288,316.427c0,6.17-7.288,9.205-14.907,9.205
												c-7.619,0-13.795-2.426-13.795-8.597c0-6.17,6.176-13.748,13.795-13.748C350,303.288,357.288,310.257,357.288,316.427z"
												/>
											<path id="XMLID_64_" style="fill:#FFC76C;" d="M341.152,304.684c-0.261-0.718,0.234-1.464,0.629-2.119
												c0.394-0.655,0.668-1.594,0.101-2.106c-0.419-0.377-1.109-0.28-1.555,0.064c-0.446,0.344-0.707,0.87-0.953,1.377
												c-0.038-0.973-0.221-1.962-0.71-2.804c-0.489-0.842-1.317-1.523-2.281-1.665c-0.198-0.029-0.403-0.035-0.594,0.021
												c-0.739,0.216-0.925,1.18-0.856,1.947c0.105,1.17,0.488,2.315,1.108,3.313c-0.219-0.523-0.816-0.806-1.382-0.822
												c-0.567-0.017-1.115,0.182-1.647,0.378c-0.176,0.065-0.367,0.142-0.455,0.308c-0.125,0.237,0.021,0.522,0.174,0.743
												c1.006,1.445,2.491,2.55,4.164,3.099c-0.046-0.12-0.091-0.241-0.137-0.361"/>
										</g>
										<path id="XMLID_67_" style="fill:#FF8745;" d="M350.32,325.716c1.103-0.361,2.168-0.876,2.936-1.672
											c0.164-0.17,0.326-0.367,0.345-0.603c0.049-0.594-0.776-0.85-1.353-0.698c-0.5,0.132-1.005,0.397-1.536,0.334
											c-0.6-0.071-0.945-0.58-1.4-0.918c-0.783-0.582-1.786-0.624-2.719-0.461c-0.423,0.074-0.867,0.197-1.153,0.517
											c-0.313,0.35-0.4,0.842-0.78,1.141c-0.439,0.345-1.048,0.387-1.584,0.365c-0.666-0.028-1.353-0.151-1.987,0.055
											c-0.136,0.044-0.271,0.105-0.372,0.207c-0.119,0.12-0.182,0.288-0.203,0.456c-0.067,0.532,0.256,1.055,0.695,1.364
											c0.438,0.309,0.975,0.44,1.503,0.537c1.845,0.339,3.755,0.278,5.589-0.103
											C348.948,326.102,349.641,325.938,350.32,325.716z"/>
										<path id="XMLID_68_" style="fill:#513419;" d="M339.75,321.599c0,0.661-0.536,1.197-1.196,1.197
											c-0.661,0-1.197-0.536-1.197-1.197c0-0.661,0.536-1.197,1.197-1.197C339.214,320.403,339.75,320.938,339.75,321.599z"/>
										<path id="XMLID_69_" style="fill:#513419;" d="M353.898,320.403c0,0.692-0.561,1.253-1.253,1.253
											s-1.253-0.561-1.253-1.253s0.561-1.253,1.253-1.253S353.898,319.711,353.898,320.403z"/>
									</g>
									<path id="XMLID_71_" style="fill:#FF8745;" d="M339.333,345.921c0.464,0.771,1.132,1.588,2.032,1.579
										c0.728-0.007,1.321-0.56,1.833-1.077c1.025-1.035,2.059-2.08,2.839-3.311c0.387-0.61,2-3.683,0.902-4.14
										c-0.225-0.094-0.482-0.062-0.723-0.024c-0.48,0.075-0.995,0.162-1.228-0.349c-0.243-0.534-0.351-1.122-0.604-1.651
										c-0.253-0.529-0.715-1.02-1.3-1.06c-0.717-0.049-1.295,0.579-1.638,1.21c-0.342,0.632-0.595,1.354-1.168,1.787
										c-0.089,0.067-0.19,0.128-0.302,0.135c-0.131,0.007-0.254-0.061-0.367-0.128c-0.331-0.193-0.663-0.387-0.994-0.58
										c-0.176-0.103-0.382-0.209-0.575-0.143c-0.195,0.067-0.292,0.281-0.358,0.475
										C336.786,341.294,337.973,343.659,339.333,345.921z"/>
								</g>
								<g id="XMLID_97_">
									<path id="XMLID_106_" style="fill:#454C56;" d="M456.389,341.969c-1.97,3.8-25.82,3.42-34.67,2.2h-0.01
										c-1.86-0.26-3.06-0.56-3.24-0.86c-0.1-0.18-0.16-0.48-0.18-0.88c-0.17-3.55,2.72-14.81,2.72-14.81s1.64-1.81,5.04-3.5
										c3.13-1.56,7.75-3.01,13.94-2.85c5.12,0.13,9.13,2.68,11.96,6v0.01C456.269,332.339,457.829,339.189,456.389,341.969z"/>
									<g id="XMLID_91_">
										<g id="XMLID_89_">
											<path id="XMLID_82_" style="fill:#454C56;" d="M425.319,327.829c0,0,0.07-16.414-2.249-16.239
												c-2.319,0.175-10.685,9.457-10.685,9.457L425.319,327.829z"/>
											<path id="XMLID_85_" style="fill:#E06868;" d="M422.48,323.434c0,0,0.248-6.78-0.579-6.863
												c-0.828-0.083-4.717,3.431-4.717,3.431L422.48,323.434z"/>
										</g>
										<g id="XMLID_81_">
											<path id="XMLID_83_" style="fill:#454C56;" d="M413.928,322.984c0,0-9.546-10.828-11.166-9.915
												c-1.62,0.913-1.958,16.439-1.958,16.439L413.928,322.984z"/>
											<path id="XMLID_87_" style="fill:#E06868;" d="M408.33,322.033c-0.083-0.248-3.062-4.965-3.972-4.468
												c-0.91,0.496-0.91,8.027-0.91,8.027L408.33,322.033z"/>
										</g>
									</g>
									<path id="XMLID_105_" style="fill:#454C56;" d="M430.139,334.469c-0.18,4.97-3.56,8.24-8.42,9.7h-0.01
										c-2.17,0.64-4.63,0.92-7.24,0.83c-5.83-0.2-10.83-2.06-13.28-5.56c-1.11-1.57-1.7-3.47-1.62-5.7
										c0.26-7.2,7.4-15.14,15.83-14.83c4.23,0.15,7.99,2.24,10.65,5.21c1.59,1.76,2.79,3.84,3.47,5.99
										C429.969,331.549,430.189,333.029,430.139,334.469z"/>
									<path id="XMLID_103_" style="fill:#353D4C;" d="M456.389,341.969c-1.97,3.8-25.82,3.42-34.67,2.2h-0.01
										c-2.17,0.64-4.63,0.92-7.24,0.83c-5.83-0.2-10.83-2.06-13.28-5.56c2.67,1.48,6.94,2.88,13.67,3.12
										c1.25,0.04,2.39-0.01,3.43-0.13c11.51-1.41,11.22-12.33,11.22-12.33l0.01,0.01c3.57,2.96,2.6,8.59,4.22,10.03
										c1.61,1.43,13.26,1.16,17.02-0.41c2.76-1.16,1.96-8.41,1.19-12.45C456.269,332.339,457.829,339.189,456.389,341.969z"/>
									<path id="XMLID_92_" style="fill:#586066;" d="M411.34,344.062c0,1.991-4.039,1.67-8.478,1.67
										c-4.439,0-6.941-0.28-6.941-3.649c0-3.057,2.112-4.052,6.941-3.563C407.285,338.969,411.34,342.071,411.34,344.062z"/>
									<path id="XMLID_94_" style="fill:#586066;" d="M416.19,343.328c0,1.991,4.039,1.67,8.478,1.67
										c4.439,0,6.941-0.28,6.941-3.649c0-3.057-2.112-4.052-6.941-3.563C420.244,338.235,416.19,341.337,416.19,343.328z"/>
									<path id="XMLID_80_" style="fill:#586066;" d="M452.837,329.03c-2.72-2.811-7.171-5.078-10.365-1.626
										c-1.864,2.014-3.031,5.092-2.514,7.828c0.064,0.342,0.702,3.229,1.337,4.348c0.141,0.249,0.003,0.563-0.273,0.641
										c-2.035,0.572-7.124,0.593-7.124,4.161c0,1.213,19.086,1.478,21.894-0.699c2.865-2.221,1.264-7.554,0.008-10.384
										C455.181,331.905,454.129,330.365,452.837,329.03z"/>
									<path id="XMLID_78_" style="fill:#454C56;" d="M456.026,339.327c0,0-2.902,2.591-9.798,2.75
										c-5.646,0.13-8.497-0.897-7.525,2.27c0.57,1.859,14.317,1.977,17.779-0.28c4.288-2.796,3.21-7.444,0.429-7.627
										C456.911,336.44,457.084,338.601,456.026,339.327z"/>
									<g id="XMLID_96_">
										<path id="XMLID_100_" style="fill:#292E3F;" d="M422.515,335.46c0,1.376-1.137,2.494-2.537,2.494
											c-1.417,0-2.553-1.117-2.553-2.494c0-0.178,0.017-0.356,0.066-0.534c0.247,1.134,1.268,1.96,2.487,1.96
											c1.202,0,2.224-0.826,2.471-1.96C422.498,335.104,422.515,335.282,422.515,335.46z"/>
										<path id="XMLID_95_" style="fill:#292E3F;" d="M409.911,335.909c0,1.376-1.137,2.494-2.537,2.494
											c-1.417,0-2.553-1.117-2.553-2.494c0-0.178,0.016-0.356,0.066-0.535c0.247,1.134,1.268,1.96,2.487,1.96
											c1.203,0,2.224-0.826,2.471-1.96C409.895,335.552,409.911,335.73,409.911,335.909z"/>
										<path id="XMLID_93_" style="fill:#E06868;" d="M415.662,339.03c0,0.595-1.165,1.076-2.603,1.076
											c-1.438,0-2.603-0.482-2.603-1.076c0-0.594,1.166-1.076,2.603-1.076C414.496,337.954,415.662,338.436,415.662,339.03z"/>
									</g>
								</g>
								<g id="XMLID_102_">
									<g id="XMLID_77_">
										<polygon id="XMLID_90_" style="fill:#EFEBAB;" points="398.018,344.41 357.288,344.41 362.208,303.288 391.208,303.288 
																					"/>
										<polygon id="XMLID_88_" style="fill:#E2D28F;" points="366.718,344.41 357.288,344.41 362.208,303.288 										"/>
									</g>
									<g id="XMLID_99_">
										
											<text id="XMLID_98_" transform="matrix(1.0267 0 0.1516 0.9884 373.1541 318.1001)" style="fill:#513419; font-family:'Bebas-Regular'; font-size:7.4155px;">SALE</text>
										
											<text id="XMLID_101_" transform="matrix(1.0267 0 0.1516 0.9884 369.3835 331.75)" style="fill:#E52831; font-family:'Bebas-Regular'; font-size:15.8261px;">50%</text>
									</g>
								</g>
							</g>
						</g>
					</g>
				</g>
				<g id="XMLID_110_">
					<g id="XMLID_661_">
						<g id="XMLID_656_">
							<g id="XMLID_655_">
								<path id="XMLID_654_" style="fill:#FCCAA7;" d="M81.26,316.231l2.598-0.46c0,0,4.097-1.293,5.005-0.944
									c0.908,0.349,6.089,3.569,5.804,4.401c-0.285,0.832-5.314-2.237-5.314-2.237s5.277,3.037,5.154,4.031
									c-0.123,0.994-4.735-1.656-4.735-1.656s4.56,2.876,4.063,3.427c-0.497,0.55-4.689-2.101-4.689-2.101
									s4.029,3.347,3.552,3.907c-0.477,0.56-4.439-2.281-4.439-2.281s-3.385,0.876-6.892-0.686L81.26,316.231z"/>
								
									<path id="XMLID_642_" style="fill:none;stroke:#D16B61;stroke-width:0.5;stroke-linecap:round;stroke-linejoin:round;stroke-miterlimit:10;" d="
									M85.415,316.58c1.717-0.041,3.437,0.029,5.146,0.21c0.168,0.018,0.341,0.038,0.487,0.123
									c0.146,0.084,0.259,0.25,0.228,0.416c-0.036,0.197-0.243,0.306-0.428,0.382c-0.965,0.394-1.991,0.636-3.03,0.714
									c-0.432,1.316-1.67,2.329-3.046,2.49"/>
							</g>
							<path id="XMLID_652_" style="fill:#FFC76C;" d="M63.098,285.803c0,0,2.564,2.482,3.463,6.308
								c0.899,3.826,3.798,15.806,5.357,17.073c1.878,1.527,11.94,6.586,11.94,6.586l-2.049,6.043c0,0-15.62-4.083-16.897-7.253
								c-1.277-3.17-7.725-14.188-7.725-14.188L63.098,285.803z"/>
						</g>
						<g id="XMLID_657_">
							<g id="XMLID_632_">
								<path id="XMLID_640_" style="fill:#FCCAA7;" d="M64.716,295.932c-0.435,3.826-4.317,15.125-4.317,15.125l-14.792-1.953
									c0,0-2.427-18.446-2.019-20.924c0.338-2.023,3.532-3.145,5.737-4.568c0.485-0.309,0.932-0.643,1.282-1.001
									c1.946-1.982,3.13-8.201,3.476-9.446l7.32,2.318c0,0-2.537,6.383-2.034,8.225c0.15,0.544,0.542,0.788,1.078,1
									c0.693,0.253,1.627,0.437,2.649,1.096C64.919,286.982,65.16,292.108,64.716,295.932z"/>
								<path id="XMLID_639_" style="fill:#FFB544;" d="M64.716,295.932c-0.435,3.826-4.317,15.125-4.317,15.125l-14.792-1.953
									c0,0-2.427-18.446-2.019-20.924c0.338-2.023,3.532-3.145,5.737-4.568c2.924,2.454,7.914,6.371,9.482,5.882
									c1.566-0.479,1.709-3.164,1.641-4.786c0.693,0.253,1.627,0.437,2.649,1.096C64.919,286.982,65.16,292.108,64.716,295.932z"
									/>
							</g>
							<g id="XMLID_643_">
								<path id="XMLID_648_" style="fill:#EAAB8F;" d="M48.176,327.228c-0.269,1.069,5.611,58.753,5.611,58.753h6.195v-56.797
									L48.176,327.228z"/>
								<path id="XMLID_647_" style="fill:#EAAB8F;" d="M69.042,392.296c-0.21,1.11-5.98,0.78-8.32,0.78c-2.34,0-4.99-2.9-4.99-2.9
									l-0.41,2.89l-2.62,0.01c0,0-0.6-2.6-0.71-4.31c-0.04-0.61,0.35-1.49,0.87-2.38c0.95-1.62,2.33-3.27,2.46-3.47
									c0,0,2.52,0.1,3.63,1.82c0.75,1.15,5.18,3.69,7.91,5.56C68.182,391.195,69.102,391.936,69.042,392.296z"/>
								<path id="XMLID_644_" style="fill:#A35713;" d="M69.042,392.296c-0.21,1.11-5.98,0.78-8.32,0.78c-2.34,0-4.99-2.9-4.99-2.9
									l-0.41,2.89l-2.62,0.01c0,0-0.6-2.6-0.71-4.31c-0.04-0.61,0.35-1.49,0.87-2.38c2.81,1.25,11.62,5,14,3.91
									C68.182,391.195,69.102,391.936,69.042,392.296z"/>
							</g>
							<g id="XMLID_625_">
								<path id="XMLID_624_" style="fill:#FCCAA7;" d="M40.928,327.182c-0.269,1.069,5.611,58.753,5.611,58.753h6.196v-56.797
									L40.928,327.182z"/>
								<path id="XMLID_651_" style="fill:#FCCAA7;" d="M61.794,392.25c-0.21,1.11-5.98,0.78-8.32,0.78c-2.34,0-4.99-2.9-4.99-2.9
									l-0.41,2.89l-2.62,0.01c0,0-0.6-2.6-0.71-4.31c-0.04-0.61,0.35-1.49,0.87-2.38c0.95-1.62,2.33-3.27,2.46-3.47
									c0,0,2.52,0.1,3.63,1.82c0.75,1.15,5.18,3.69,7.91,5.56C60.934,391.15,61.854,391.89,61.794,392.25z"/>
								<path id="XMLID_649_" style="fill:#B2751A;" d="M61.794,392.25c-0.21,1.11-5.98,0.78-8.32,0.78c-2.34,0-4.99-2.9-4.99-2.9
									l-0.41,2.89l-2.62,0.01c0,0-0.6-2.6-0.71-4.31c-0.04-0.61,0.35-1.49,0.87-2.38c2.81,1.25,11.62,5,14,3.91
									C60.934,391.15,61.854,391.89,61.794,392.25z"/>
							</g>
							<path id="XMLID_623_" style="fill:#FFB544;" d="M52.477,302.286l-6.869,6.819c0,0-8.086,10.645-9.885,18.986
								c-1.799,8.34-4.626,29.475-4.626,29.475s3.944-0.355,5.486,1.721c1.542,2.076,3.017,5.603,8.671,4.575
								s4.894-4.331,9.006-3.303c4.112,1.028,3.188,3.232,8.919,1.945c3.146-0.707,1.704-4.419,9.196-5.022l-11.345-48.296
								L52.477,302.286z"/>
							<g id="XMLID_641_">
								<g id="XMLID_634_">
									<path id="XMLID_638_" style="fill:#FCCAA7;" d="M67.938,276.478c0,0-2.266,6.587-6.679,4.728
										c-1.871-0.788-11.704-6.915-10.599-12.752c1.103-5.827,5.889-9.858,10.863-8.982c4.964,0.874,8.197,4.567,6.851,11.611
										c-0.069,0.363-0.737,2.7-0.748,2.708c-0.013,0.018,1.028,0.92,1.163,1.137C69.038,275.349,67.938,276.478,67.938,276.478z"
										/>
									<path id="XMLID_637_" style="fill:#494F5E;" d="M66.504,272.593c-0.114,0.497-0.364,0.863-0.558,0.819
										c-0.194-0.044-0.259-0.483-0.145-0.98c0.114-0.497,0.364-0.863,0.558-0.819C66.553,271.657,66.618,272.096,66.504,272.593z
										"/>
									
										<path id="XMLID_636_" style="fill:none;stroke:#414F58;stroke-width:0.5;stroke-linecap:round;stroke-linejoin:round;stroke-miterlimit:10;" d="
										M64.722,270.428c0.78-0.563,1.852-0.692,2.743-0.331"/>
									
										<path id="XMLID_635_" style="fill:none;stroke:#D16B61;stroke-width:0.5;stroke-linecap:round;stroke-linejoin:round;stroke-miterlimit:10;" d="
										M66.929,277.824c-0.567-0.094-1.715-0.712-2.016-1.398"/>
								</g>
								<g id="XMLID_630_">
									<path id="XMLID_628_" style="fill:#414F58;" d="M53.714,261.7c-0.546,2.468-2.965,4.031-5.403,3.492
										c-2.438-0.54-3.971-2.978-3.424-5.446c0.546-2.468,2.965-4.031,5.403-3.492C52.727,256.794,54.26,259.232,53.714,261.7z"/>
									<path id="XMLID_629_" style="fill:#FFB544;" d="M50.943,261.79c-1.416,1.911-1.637,4.147-0.492,4.996
										c1.144,0.848,3.22-0.013,4.637-1.924c1.416-1.911,1.637-4.147,0.492-4.996C54.435,259.018,52.359,259.88,50.943,261.79z"/>
								</g>
								<path id="XMLID_626_" style="fill:#414F58;" d="M64.722,260.381c0.352-0.284,5.484-0.295,7.078,3.348
									c1.594,3.643-1.914,6.716-1.914,6.716s-0.463-3.453-1.779-5.198c0,0-0.605,2.92-2.957,3.945l-0.428-4.172
									c0,0-2.257,4.022-6.354,5.426l-5.172,6.292c0,0-7.042-5.694-2.189-13.16C56.926,254.471,64.722,260.381,64.722,260.381z"/>
								<path id="XMLID_627_" style="fill:#FCCAA7;" d="M57.748,274.133c-0.942,1.148-2.739,1.232-4.012,0.187
									c-1.274-1.045-1.543-2.823-0.6-3.972c0.942-1.148,2.739-1.232,4.013-0.187C58.422,271.206,58.691,272.985,57.748,274.133z"
									/>
							</g>
						</g>
						<g id="XMLID_659_">
							<path id="XMLID_646_" style="fill:#FCCAA7;" d="M50.574,327.625l2.161,1.513c0,0,3.809,1.985,4.204,2.874
								c0.395,0.889,1.778,6.831,0.988,7.217c-0.79,0.387-2.173-5.341-2.173-5.341s1.58,5.88,0.79,6.495
								c-0.79,0.615-2.174-4.52-2.174-4.52s1.187,5.259,0.446,5.296c-0.741,0.037-1.827-4.802-1.827-4.802s0.479,5.216-0.254,5.274
								s-1.523-4.753-1.523-4.753s-3.012-1.776-4.385-5.361L50.574,327.625z"/>
							<path id="XMLID_645_" style="fill:#FFC76C;" d="M43.811,287.532c0.392-0.882,2.999-2.261,4.937-0.789
								c2.435,1.851,2.883,6.651,2.674,9.255c-0.209,2.604-3.488,12.119-3.253,13.9c0.235,1.781,4.567,19.24,4.567,19.24
								l-5.908,2.379c0,0-6.207-15.896-6.993-20.46S41.39,292.983,43.811,287.532z"/>
						</g>
					</g>
					<g id="XMLID_678_">
						<g id="XMLID_669_">
							<g id="XMLID_524_">
								<g id="XMLID_529_">
									<polygon id="XMLID_658_" style="fill:#F4A989;" points="577.553,388.291 578.1,380.171 572.12,379.847 571.816,388.191 
																			"/>
									<g id="XMLID_631_">
										<path id="XMLID_653_" style="fill:#414F58;" d="M564.259,393.061l14.48,0.036l-0.326-1.463l-0.749-3.347
											c0,0-10.227-0.406-11.636,0.58c-0.634,0.444-1.052,1.33-1.321,2.178C564.368,392.082,564.259,393.061,564.259,393.061z"/>
										<path id="XMLID_633_" style="fill:#586B72;" d="M564.259,393.061l14.48,0.036l-0.326-1.463l-13.705-0.589
											C564.368,392.082,564.259,393.061,564.259,393.061z"/>
									</g>
								</g>
								<g id="XMLID_522_">
									<polygon id="XMLID_521_" style="fill:#F4A989;" points="591.492,388.234 591.021,380.109 597.004,379.842 597.229,388.189 
																			"/>
									<g id="XMLID_460_">
										<path id="XMLID_663_" style="fill:#414F58;" d="M604.74,393.13l-14.48-0.1l0.34-1.46l0.78-3.34c0,0,10.23-0.31,11.63,0.69
											c0.63,0.45,1.04,1.34,1.3,2.19C604.64,392.15,604.74,393.13,604.74,393.13z"/>
										<path id="XMLID_660_" style="fill:#586B72;" d="M604.74,393.13l-14.48-0.1l0.34-1.46l13.71-0.46
											C604.64,392.15,604.74,393.13,604.74,393.13z"/>
									</g>
								</g>
							</g>
							<g id="XMLID_662_">
								<polygon id="XMLID_352_" style="fill:#414F58;" points="587.296,309.557 596.435,312.679 599.244,384.78 589.549,384.78 
									586.133,330.191 580.008,384.78 570.128,384.13 575.886,312.672 								"/>
								<polygon id="XMLID_350_" style="fill:#586B72;" points="588.957,383.882 600.744,383.043 600.306,386.671 588.571,386.671 
																	"/>
								<polygon id="XMLID_360_" style="fill:#586B72;" points="580.85,383.882 569.191,381.576 568.883,386.131 580.85,386.671 
																	"/>
							</g>
						</g>
						<g id="XMLID_675_">
							<path id="XMLID_674_" style="fill:#F4A989;" d="M611.123,285.86c0,0-3.555-7.412-2.765-8.15
								c0.79-0.737,2.765,3.147,2.765,3.147s10.336-3.912,10.797-3.24c0.461,0.672-4.016,3.174-4.016,3.174s6.188-1.686,6.715-0.711
								c0.527,0.974-0.658,1.238-0.658,1.238s0.862,0.395,0.793,0.988s-0.859,1.075-0.859,1.075s0.395,0.082,0.395,0.59
								s-9.56,3.42-9.56,3.42L611.123,285.86z"/>
							<path id="XMLID_693_" style="fill:#F4A989;" d="M614.73,287.39c0,0-9.96,24.18-15.49,23.9c-2.64-0.12-4.63-4.34-5.99-8.71
								c-1.5-4.78-2.24-9.74-2.24-9.74l5.43-8.31c0,0,0.79,0.92,1.87,4.93c0.86,3.18,2.19,6.71,2.7,8.03
								c0.14,0.35,0.22,0.54,0.22,0.54l0.74-1.17l8.61-13.48L614.73,287.39z"/>
							<path id="XMLID_691_" style="fill:#F7576B;" d="M601.604,296.653l-8.354,5.927c-1.5-4.78-2.24-9.74-2.24-9.74l5.43-8.31
								c0,0,0.61,0.716,2.305,4.866C599.991,292.446,601.094,295.333,601.604,296.653z"/>
						</g>
						<g id="XMLID_673_">
							<path id="XMLID_650_" style="fill:#F4A989;" d="M596.44,312.68l-20.55-0.01c0,0-2.79-25.22-2.63-27.11
								c0.15-1.85,5.41-2.94,6.63-3.87c0.02-0.01,0.04-0.02,0.06-0.04c0.59-0.5,0.79-2.91,0.84-5.06c0.02-0.62,0.03-1.22,0.03-1.75
								c0-1.08-0.02-1.84-0.02-1.84l0.98,0.19l7.59,1.46c0,0,0.1,3.16,0.33,5.15c0.05,0.5,0.12,0.93,0.19,1.21
								c0.11,0.39,0.56,0.73,1.19,1.05c1.63,0.81,4.45,1.45,5.36,2.47C597.69,285.95,596.44,312.68,596.44,312.68z"/>
							<path id="XMLID_525_" style="fill:#E58876;" d="M589.7,279.8c-4.38,0.27-7.61-2.07-8.91-3.21c0.02-0.62,0.03-1.22,0.03-1.75
								l0.96-1.65l7.59,1.46C589.37,274.65,589.47,277.81,589.7,279.8z"/>
							<path id="XMLID_559_" style="fill:#F33643;" d="M596.44,312.68l-20.55-0.01c0,0-2.79-25.22-2.63-27.11
								c0.15-1.85,5.41-2.94,6.63-3.87c2.66,2.45,7.58,6.81,8.7,6.45c1.01-0.32,1.95-3.73,2.49-6.08c1.63,0.81,4.45,1.45,5.36,2.47
								C597.69,285.95,596.44,312.68,596.44,312.68z"/>
						</g>
						<g id="XMLID_671_">
							<path id="XMLID_672_" style="fill:#F4A989;" d="M579.637,319.952c0,0,8.482-1.131,9.532-0.808
								c1.05,0.323,2.544,1.084,2.755,1.928c0.211,0.844,0.22,2.195-0.265,2.409c-0.354,0.157-0.903,0.076-0.903,0.076
								s0.368,0.852-0.318,1.116c-0.686,0.264-1.128-0.025-1.128-0.025s-0.157,0.832-0.55,1.118
								c-0.553,0.402-1.418,0.184-1.362,0.157c0,0-0.8,1.056-2.224,0.476c-1.424-0.58-1.424-0.58-1.424-0.58
								s-1.771,1.139-4.745-1.525C576.03,321.63,579.637,319.952,579.637,319.952z"/>
							<path id="XMLID_689_" style="fill:#F4A989;" d="M582.72,319.77l-4.368,3.72c0,0-11.112-10.14-11.332-12.28
								c-0.11-1.07,0.62-5.84,1.48-10.7c0.87-4.89,1.87-9.88,2.31-11.29c0.86-2.81,3.08-5.28,4.49-5.25
								c1.77,0.03,2.94,4.21,3.16,5.96c0.43,3.34-0.97,9.25-1.98,13.79c-0.6,2.72-1.07,4.95-0.93,5.84
								C575.93,311.93,582.72,319.77,582.72,319.77z"/>
							<path id="XMLID_679_" style="fill:#F7576B;" d="M577.537,303.725l-9.683-3.608c0.87-4.89,1.834-9.57,2.274-10.98
								c0.86-2.81,3.762-5.197,5.172-5.167c1.77,0.03,2.94,4.21,3.16,5.96C578.89,293.27,578.547,299.185,577.537,303.725z"/>
						</g>
						<g id="XMLID_677_">
							<path id="XMLID_351_" style="fill:#E58876;" d="M596.281,268.38c0.547,1.109-0.405,2.696-2.126,3.546
								c-1.721,0.849-3.56,0.638-4.107-0.471c-0.547-1.109,0.405-2.696,2.126-3.546C593.895,267.06,595.734,267.271,596.281,268.38z
								"/>
							<path id="XMLID_354_" style="fill:#414F58;" d="M589.425,257.861c0,0,3.133,0.345,3.519,1.941
								c0.387,1.596,0.403,8.311,0.403,8.311l-5.336-8.746L589.425,257.861z"/>
							<path id="XMLID_349_" style="fill:#F4A989;" d="M593.164,265.994c0.918,5.736,0.556,9.705-4.554,10.973
								c-6.535,1.621-11.771-3.162-12.545-8.919c-0.774-5.757,2.314-10.923,6.898-11.54
								C587.547,255.891,591.423,255.11,593.164,265.994z"/>
							<path id="XMLID_353_" style="fill:#414F58;" d="M579.303,272.155c0,0,0.564-8.36-0.334-10.437c0,0,3.214,0.617,8.008-0.326
								c6.648-1.307,8.122-3.346,7.648-4.341c-0.474-0.995-3.238-0.24-3.238-0.24s2.859-3.076,1.391-4.497
								c-1.468-1.421-5.397,2.131-5.397,2.131s1.98-3.315-0.24-3.552c-2.22-0.237-4.168,3.884-5.163,4.216
								c-0.995,0.332-6.679-0.285-6.032,3.931c0,0-2.927,0.479-2.359,4.22c0.568,3.742,3.086,8.284,3.086,8.284L579.303,272.155z"/>
							<path id="XMLID_355_" style="fill:#F4A989;" d="M580.797,273.003c-0.198,1.221-1.895,1.961-3.789,1.653
								c-1.894-0.308-3.27-1.547-3.071-2.767c0.198-1.221,1.895-1.961,3.789-1.653C579.62,270.544,580.996,271.783,580.797,273.003z
								"/>
							<g id="XMLID_676_">
								<path id="XMLID_357_" style="fill:#414F58;" d="M585.13,266.85c0.113,0.432-0.015,0.839-0.285,0.91
									c-0.27,0.071-0.581-0.222-0.694-0.654c-0.113-0.432,0.015-0.839,0.285-0.91C584.707,266.125,585.018,266.418,585.13,266.85z
									"/>
								<path id="XMLID_358_" style="fill:#414F58;" d="M591.5,266.437c0.113,0.432-0.015,0.839-0.285,0.91
									c-0.27,0.071-0.581-0.222-0.694-0.654c-0.113-0.432,0.015-0.839,0.285-0.91C591.077,265.712,591.388,266.005,591.5,266.437z
									"/>
								
									<path id="XMLID_359_" style="fill:none;stroke:#C45353;stroke-width:0.5;stroke-linecap:round;stroke-linejoin:round;stroke-miterlimit:10;" d="
									M588.591,265.901c0.54,1.049,0.51,1.989,0.396,2.914"/>
								
									<path id="XMLID_402_" style="fill:none;stroke:#414F58;stroke-width:0.5;stroke-linecap:round;stroke-linejoin:round;stroke-miterlimit:10;" d="
									M589.362,263.254c0.74-0.558,1.779-0.691,2.635-0.338"/>
								
									<path id="XMLID_404_" style="fill:none;stroke:#414F58;stroke-width:0.5;stroke-linecap:round;stroke-linejoin:round;stroke-miterlimit:10;" d="
									M581.634,264.683c0.676-0.855,1.852-1.283,2.92-1.062"/>
								<path id="XMLID_458_" style="fill:#FFFFFF;" d="M589.893,270.425l-4.356-0.548c0,0-0.661,2.983,1.539,3.33
									C589.848,273.644,589.893,270.425,589.893,270.425z"/>
							</g>
						</g>
					</g>
					<g id="XMLID_621_">
						<g id="XMLID_617_">
							<g id="XMLID_604_">
								<path id="XMLID_606_" style="fill:#F4A989;" d="M279.352,349.809c0.224,0.716-1.435,39.234-1.435,39.234h-6.318
									l-1.135-37.436L279.352,349.809z"/>
								<path id="XMLID_619_" style="fill:#414F58;" d="M285.951,393.944h-16.07l1.67-4.76l0.05-0.14h6.32
									c2.93,0.19,4.79,0.82,5.98,1.56C286.221,392.054,285.951,393.944,285.951,393.944z"/>
								<path id="XMLID_613_" style="fill:#F4A989;" d="M283.901,390.604c-1.61,0.63-9.87-0.93-12.35-1.42l0.05-0.14h6.32
									C280.851,389.234,282.711,389.864,283.901,390.604z"/>
							</g>
							<g id="XMLID_600_">
								<path id="XMLID_597_" style="fill:#F4A989;" d="M267.535,349.639c0.224,0.716-1.435,39.234-1.435,39.234h-6.318
									l-1.135-37.436L267.535,349.639z"/>
								<path id="XMLID_618_" style="fill:#516066;" d="M274.131,393.774h-16.07l1.39-3.97l0.33-0.93h6.32
									c3.3,0.22,5.25,0.99,6.4,1.85C274.361,392.124,274.131,393.774,274.131,393.774z"/>
								<path id="XMLID_614_" style="fill:#F4A989;" d="M272.501,390.724c-2.56,0.16-10.5-0.64-13.05-0.92l0.33-0.93h6.32
									C269.401,389.094,271.351,389.864,272.501,390.724z"/>
							</g>
							<path id="XMLID_580_" style="fill:#414F58;" d="M263.88,310.362c0,0-6.586,8.73-6.819,15.714
								c-0.234,6.984-4.045,53.634-4.045,53.634s9.626-2.977,12.105-1.152c2.479,1.825,9.63,1.218,11.438,0
								c1.808-1.218,4.787-1.007,6.962-0.305c2.175,0.702,4.658-0.641,4.658-0.641l-9.38-67.251H263.88z"/>
						</g>
						<path id="XMLID_616_" style="fill:#F4A989;" d="M274.648,294.316l3.522-9.343c0,0,3.157,1.712,3.642,3.664
							c0.485,1.952,4.079,14.536,4.734,14.627c0.656,0.091,11.25-4.948,11.25-4.948s2.527-4.526,3.17-5.109
							c0.643-0.583,3.663-5.437,4.147-5.049c0.99,0.794-1.541,4.848-1.966,5.432c0,0,1.783,1.035,1.943,2.203
							c0.159,1.168-0.531,2.815-1.009,2.974c-0.478,0.159-0.531-0.266-0.531-0.266s-2.213,3.24-3.275,3.293
							c0,0-14.546,10.389-17.201,9.843C280.42,311.092,274.648,294.316,274.648,294.316z"/>
						<g id="XMLID_595_">
							<path id="XMLID_590_" style="fill:#A55A16;" d="M272.719,259.167c0.616-0.196,9.299-0.364,9.884,4.183
								c0.585,4.548-3.289,15.16-2.026,18.191c1.263,3.031,1.243,3.789,1.243,3.789s-6.212-1.772-8.401-1.097
								C271.23,284.909,272.719,259.167,272.719,259.167z"/>
							<path id="XMLID_601_" style="fill:#F4A989;" d="M281.101,294.804c0.07,3.85-2.3,15.56-2.3,15.56h-14.92
								c0,0-4.82-17.97-4.74-20.48c0.07-2.05,3.09-3.58,5.09-5.28c0.44-0.37,0.84-0.76,1.14-1.16c1.67-2.22,2.03-8.54,2.21-9.82
								l7.56,1.34c0,0-1.68,6.66-0.94,8.42c0.22,0.52,0.64,0.71,1.2,0.85c0.72,0.16,1.67,0.22,2.77,0.74
								C280.131,285.904,281.041,290.954,281.101,294.804z"/>
							<path id="XMLID_598_" style="fill:#FEFEFE;" d="M281.101,294.804c0.07,3.85-2.3,15.56-2.3,15.56h-14.92
								c0,0-4.82-17.97-4.74-20.48c0.07-2.05,3.09-3.58,5.09-5.28c3.22,2.05,8.68,5.28,10.17,4.59c1.49-0.68,1.28-3.36,1-4.96
								c0.72,0.16,1.67,0.22,2.77,0.74C280.131,285.904,281.041,290.954,281.101,294.804z"/>
							<g id="XMLID_594_">
								<path id="XMLID_599_" style="fill:#F4A989;" d="M281.242,274.802c0,0-1.089,6.88-5.758,5.815
									c-1.979-0.451-12.726-4.78-12.65-10.72c0.076-5.929,4.09-10.73,9.14-10.73c5.04,0,8.865,3.076,8.761,10.247
									c-0.005,0.37-0.257,2.787-0.267,2.797c-0.01,0.02,1.172,0.728,1.342,0.918C282.131,273.499,281.242,274.802,281.242,274.802
									z"/>
								<path id="XMLID_582_" style="fill:#494F5E;" d="M279.156,271.224c-0.026,0.509-0.208,0.914-0.407,0.903
									c-0.199-0.01-0.339-0.431-0.313-0.94c0.026-0.509,0.208-0.914,0.407-0.903C279.043,270.294,279.183,270.715,279.156,271.224
									z"/>
								
									<path id="XMLID_592_" style="fill:none;stroke:#A55A16;stroke-width:0.5;stroke-linecap:round;stroke-linejoin:round;stroke-miterlimit:10;" d="
									M276.932,268.868c0.67-0.689,1.704-1.003,2.644-0.802"/>
								
									<path id="XMLID_593_" style="fill:none;stroke:#D16B61;stroke-width:0.5;stroke-linecap:round;stroke-linejoin:round;stroke-miterlimit:10;" d="
									M280.482,276.302c-0.575,0.006-1.812-0.404-2.228-1.027"/>
							</g>
							<path id="XMLID_586_" style="fill:#B77415;" d="M280.154,262.93c0,0-1.998,4.852-9.21,7.635c0,0-1.667,12.942,2.223,15.959
								c0,0-2.699,0.635-6.193-0.873c-3.493-1.508-3.97-1.96-5.32-1.417c0,0-1.894-16.305,1.181-21.132
								C266.021,258.1,274.939,256.102,280.154,262.93z"/>
						</g>
						<g id="XMLID_615_">
							
								<path id="XMLID_610_" style="fill:none;stroke:#A67B33;stroke-linecap:round;stroke-linejoin:round;stroke-miterlimit:10;" d="
								M278.787,328.788c0,0-2.843-14.196-6.773-16.071"/>
							<g id="XMLID_612_">
								<path id="XMLID_602_" style="fill:#F4A989;" d="M265.538,294.373c0.183-2.141-0.538-9.122-4.508-7.316
									c-3.97,1.806-7.829,26.686-5.037,28.064c2.792,1.378,18.647,3.485,18.647,3.485l1.675-3.958c0,0-13.963-4.177-14.019-5.164
									C262.24,308.497,265.209,298.223,265.538,294.373z"/>
								<path id="XMLID_605_" style="fill:#F4A989;" d="M273.513,315.89l2.801-1.241c0,0,4.372-2.397,5.025-2.396
									c0.284,0,1.758,0.141,2.529,0.54c0.67,0.347,1.14,1.555,1.225,2.068c0.077,0.471-0.566,0.788-0.566,0.788
									s-0.052,0.888-0.963,1.233c0,0,0.063,0.974-0.827,1.131c0,0-0.518,1.643-3.247,0.74c0,0-3.011,1.551-5.209-0.295
									L273.513,315.89z"/>
							</g>
							
								<path id="XMLID_608_" style="fill:none;stroke:#A67B33;stroke-linecap:round;stroke-linejoin:round;stroke-miterlimit:10;" d="
								M271.866,312.782c-4.385,0.832-7.27,15.862-7.27,15.862"/>
							<path id="XMLID_603_" style="fill:#FED481;" d="M263.515,327.947h16.017l1.782,16.974c0.227,2.162-1.455,4.052-3.629,4.076
								l-12.504,0.143c-2.229,0.025-3.972-1.916-3.707-4.129L263.515,327.947z"/>
						</g>
					</g>
				</g>
			</g>
		</g>
		<rect id="XMLID_5_" x="17.322" y="393.026" style="fill:#414F58;" width="715.357" height="8.838"/>
	</g>
</g>
</svg>
